<mxfile host="Electron" modified="2023-09-07T16:27:34.324Z" agent="Mozilla/5.0 (Macintosh; Intel Mac OS X 10_15_7) AppleWebKit/537.36 (KHTML, like Gecko) draw.io/21.6.8 Chrome/114.0.5735.289 Electron/25.5.0 Safari/537.36" etag="Dnlp44rbVTTnGphemgAA" version="21.6.8" type="device">
  <diagram name="Strona-1" id="JpzCJPtQJU_rTV9QT_06">
    <mxGraphModel dx="2060" dy="1138" grid="1" gridSize="10" guides="1" tooltips="1" connect="1" arrows="1" fold="1" page="1" pageScale="1" pageWidth="1700" pageHeight="1000" math="0" shadow="0">
      <root>
        <mxCell id="0" />
        <mxCell id="1" parent="0" />
        <mxCell id="-kdrLQUQp2IR4uxi2dbM-1" value="" style="shape=image;verticalLabelPosition=bottom;labelBackgroundColor=default;verticalAlign=top;aspect=fixed;imageAspect=0;image=data:image/png,iVBORw0KGgoAAAANSUhEUgAAA1IAAAKHCAYAAACLonkvAAAEDmlDQ1BrQ0dDb2xvclNwYWNlR2VuZXJpY1JHQgAAOI2NVV1oHFUUPpu5syskzoPUpqaSDv41lLRsUtGE2uj+ZbNt3CyTbLRBkMns3Z1pJjPj/KRpKT4UQRDBqOCT4P9bwSchaqvtiy2itFCiBIMo+ND6R6HSFwnruTOzu5O4a73L3PnmnO9+595z7t4LkLgsW5beJQIsGq4t5dPis8fmxMQ6dMF90A190C0rjpUqlSYBG+PCv9rt7yDG3tf2t/f/Z+uuUEcBiN2F2Kw4yiLiZQD+FcWyXYAEQfvICddi+AnEO2ycIOISw7UAVxieD/Cyz5mRMohfRSwoqoz+xNuIB+cj9loEB3Pw2448NaitKSLLRck2q5pOI9O9g/t/tkXda8Tbg0+PszB9FN8DuPaXKnKW4YcQn1Xk3HSIry5ps8UQ/2W5aQnxIwBdu7yFcgrxPsRjVXu8HOh0qao30cArp9SZZxDfg3h1wTzKxu5E/LUxX5wKdX5SnAzmDx4A4OIqLbB69yMesE1pKojLjVdoNsfyiPi45hZmAn3uLWdpOtfQOaVmikEs7ovj8hFWpz7EV6mel0L9Xy23FMYlPYZenAx0yDB1/PX6dledmQjikjkXCxqMJS9WtfFCyH9XtSekEF+2dH+P4tzITduTygGfv58a5VCTH5PtXD7EFZiNyUDBhHnsFTBgE0SQIA9pfFtgo6cKGuhooeilaKH41eDs38Ip+f4At1Rq/sjr6NEwQqb/I/DQqsLvaFUjvAx+eWirddAJZnAj1DFJL0mSg/gcIpPkMBkhoyCSJ8lTZIxk0TpKDjXHliJzZPO50dR5ASNSnzeLvIvod0HG/mdkmOC0z8VKnzcQ2M/Yz2vKldduXjp9bleLu0ZWn7vWc+l0JGcaai10yNrUnXLP/8Jf59ewX+c3Wgz+B34Df+vbVrc16zTMVgp9um9bxEfzPU5kPqUtVWxhs6OiWTVW+gIfywB9uXi7CGcGW/zk98k/kmvJ95IfJn/j3uQ+4c5zn3Kfcd+AyF3gLnJfcl9xH3OfR2rUee80a+6vo7EK5mmXUdyfQlrYLTwoZIU9wsPCZEtP6BWGhAlhL3p2N6sTjRdduwbHsG9kq32sgBepc+xurLPW4T9URpYGJ3ym4+8zA05u44QjST8ZIoVtu3qE7fWmdn5LPdqvgcZz8Ww8BWJ8X3w0PhQ/wnCDGd+LvlHs8dRy6bLLDuKMaZ20tZrqisPJ5ONiCq8yKhYM5cCgKOu66Lsc0aYOtZdo5QCwezI4wm9J/v0X23mlZXOfBjj8Jzv3WrY5D+CsA9D7aMs2gGfjve8ArD6mePZSeCfEYt8CONWDw8FXTxrPqx/r9Vt4biXeANh8vV7/+/16ffMD1N8AuKD/A/8leAvFY9bLAAAAOGVYSWZNTQAqAAAACAABh2kABAAAAAEAAAAaAAAAAAACoAIABAAAAAEAAANSoAMABAAAAAEAAAKHAAAAAFqPIZIAAEAASURBVHgB7J0HuBRF1oYPiqKooCRFVpRVBFyUNYtpMQKCOSAKCIoJMedVjCjiqgiSRMkYAFlFDOAiooiyrC4GRJAMIojkIOCy8PPV/n2dO+HeydMz/dbzwMxUV1edeqtnbp8+p84ps31HMQoEIAABCEAAAhCAAAQgAAEIxE1gp7hb0hACEIAABCAAAQhAAAIQgAAEHAHfKlKDBg2yiy66yKZMmcJSQQACEIAABCAAAQhAAAIQ8BUBXypSK1assJdfftlGjx5tc+fO9RUwhIEABCAAAQhAAAIQgAAEIOBLRWrWrFk2bdo027Ztm82fP59VggAEIAABCEAAAhCAAAQg4CsCvlSkQgkNHjzY1q9fH1rFewhAAAIQgAAEIAABCEAAAjkl4EtFSpYoryioYOhnr55XCEAAAhCAAAQgAAEIQAACuSLgO0Vq6dKl1rlzZ/v1119zxYRxIQABCEAAAhCAAAQgAAEIlEjAd4rUypUrbfbs2UVC//LLL/bOO+8UfeYNBCAAAQhAAAIQgAAEIACBXBPwnSJVv35922+//Yq4rFu3zoYMGWJr164tquMNBCAAAQhAAAIQgAAEIACBXBLwnSL11ltv2XfffVeMyWeffWbz5s0rVscHCEAAAhCAAAQgAAEIQAACuSLgK0VK+6JeeuklkxUqtOy0k6/EDBWN9xCAAAQgAAEIQAACEIBAAAn4SkPZsGGDffvttxHLQNS+CCRUQAACEIAABCAAAQhAAAI5JOArRUocoilNUrAef/xxW7FiRQ5RMTQEIAABCEAAAhCAAAQgAIH/EfCVIqXEu8obFa2MHj3axo0bF+0QdRCAAAQgAAEIQAACEIAABLJKwDeKlKxNt9xyiy1btiwqAFmqolmrojamEgIQgAAEIAABCEAAAhCAQAYJ+EaRmjVrln300UcoSxlcbLqGAAQgAAEIQAACEIAABNJDwDeKVDzTefPNN23VqlXxNKUNBCAAAQhAAAIQgAAEIACBjBHIO0WqR48eGYNBxxCAAAQgAAEIQAACEIAABOIh4BtFasGCBXG59a1duzaeedEGAhCAAAQgAAEIQAACEIBAxgj4QpGaNGmS3XPPPbZly5aMTZSOIQABCEAAAhCAAAQgAAEIpIuALxSpb775xn766ad0zYl+IAABCEAAAhCAAAQgAAEIZJSALxSpRGaogBMTJkxI5BTaQgACEIAABCAAAQhAAAIQSCsBXyhSmzZtintSCxcutK5du8bdnoYQgAAEIAABCEAAAhCAAATSTSDnitS4ceMs0Uh8W7duTTcH+oMABCAAAQhAAAIQgAAEIBA3gZwrUiNHjrTFixfHLTANIQABCEAAAhCAAAQgAAEI5JpAzhWpZADMnj3bJk6cmMypnAMBCEAAAhCAAAQgAAEIQCBlAnmpSMmCdeutt9r69etTBkAHEIAABCAAAQhAAAIQgAAEEiWQU0Vq8+bNtnz58kRldu13220323nnnZM6l5MgAAEIQAACEIAABCAAAQikQiCnilSnTp1s7NixSclfo0YN22WXXZI6l5MgAAEIQAACEIAABCAAAQikQiBnitR///tf+/TTT+0///lPUvJ/9dVX9uuvvyZ1LidBAAIQgAAEIAABCEAAAhBIhUDOFKlUhNa5y5YtsyFDhqTaDedDAAIQgAAEIAABCEAAAhBImEDOFKktW7YkbY3SLJXEd86cOQlPmBMgAAEIQAACEIAABCAAAQikSiBnitSoUaNsxowZqcrP+RCAAAQgAAEIQAACEIAABLJOIGeK1Lp165xVKZUZv/feezZ37txUuuBcCEAAAhCAAAQgAAEIQAACCRPImSKVsKRRTli4cKENHTo0yhGqIAABCEAAAhCAAAQgAAEIZI5AThQpRez79ttvU56VIv598sknKfdDBxCAAAQgAAEIQAACEIAABBIhkBNFqmvXrjZo0KBE5KQtBCAAAQhAAAIQgAAEIAAB3xDIiSKlaHuK2peO8ttvv6UU/S8dMtAHBCAAAQhAAAIQgAAEIBAsAjlRpNKJ+Ouvv7YxY8aks0v6ggAEIAABCEAAAhCAAAQgUCKBrCtSmzdvtlWrVpUoVCIHN2zYYD179rRff/01kdNoCwEIQAACEIAABCAAAQhAIGkCWVekPv30Uxs/fnzSAkc78aeffsK9LxoY6iAAAQhAAAIQgAAEIACBjBDIuiLVrVs327hxY1onc9xxx1n58uXT2iedQQACEIAABCAAAQhAAAIQiEUgq4qUwp6vWLEilixJ148aNcr69u2b9PmcCAEIQAACEIAABCAAAQhAIBECWVWkJNhOO6V/SO2PUiRACgQgAAEIQAACEIAABCAAgWwQSL9WU4LUs2fPtl9++aWEFhyCAAQgAAEIQAACEIAABCDgfwJZU6RkNbrnnnts7ty5GaGycuVKAk5khCydQgACEIAABCAAAQhAAALhBLKmSCkYxKmnnho+fto+v/POO/bll1+mrT86ggAEIAABCEAAAhCAAAQgEItA1hQpBZqYN29eLDlSrl+7dq0988wzKfdDBxCAAAQgAAEIQAACEIAABEojkDVFavr06fbGG2+UJk9KxzMRETAlgTgZAhCAAAQgAAEIQAACEChIAllTpPr06UOgiYK8hJgUBCAAAQhAAAIQgAAEgkcga4rU5s2bM05XEQEXLVqU8XEYAAIQgAAEIAABCEAAAhAINoGsKVLZwDxjxgxr166dKUIgBQIQgAAEIAABCEAgWAT04F7bSbgXDNa652q2ZbM18K677mrlypWznXfeOa4h//Of/7hw5krgu9tuu8V1zvbt2+3HH380fYkUJZACAQhAAAIQgAAEIFD4BHTvp3vH7t2727PPPmu33nqrPfLII4U/cWaYUwJZU6T++te/2tVXXx3XZMuWLWvDhw+3F154wY455hjr0qWL7bLLLnGdu/vuu1vFihXjaksjCEAAAhCAAAQgAIH8JrB+/XqnOE2YMMGUV3TDhg22YMGC/J4U0ucFgTI7rDjb/SipIvAdddRR9sQTT1jr1q39KCIyQQACEIAABCAAAQjkkIDS39x88832yiuv2LZt20yeTBdffLG99NJLPFjP4boEZeisWaSCApR5QgACEIAABCAAAQhkloAsTlKWvv32Wxs7dqxTojTiAQcc4Nz78E7KLH96/x8BFCmuBAhAAAIQgAAEIACBvCCgfVAffPCBde3a1SZNmhQhc/v27a169eoR9VRAIBMEUKQyQZU+IQABCEAAAhCAAATSSkBKlPbNS4mKFpWvTp061rJly7SOSWcQKIkAilRJdDgGAQhAAAIQgAAEIJBTAtoH1adPH5s5c6aNGjUqqhLl7Y06+OCDcyorgweLAIpUsNab2UIAAhCAAAQgAIG8ILBo0SL7/PPPbcyYMTZixAgX3jyW4LVq1bK2bdvGOkw9BDJCAEUqI1jpFAIQgAAEIAABCEAgWQIKJtGmTZuo+6DC+5QSNXDgQKtdu3b4IT5DIKMEUKQyipfOIQABCEAAAhCAAATiJTBlyhR788037ZNPPjG9j6fceeeddsopp8TTlDYQSCsBFKm04qQzCEAAAhCAAAQgAIFECaxatcreffddlz901qxZcZ++zz772CGHHBJ3expCIJ0EUKTSSZO+IAABCEAAAhCAQBoJrFixwpYtW+Z6VECFgw46yMqXLx9zhP/+978mtzhFuFPghV122SVmW78cGD9+vHXq1MmmTZtmW7ZsiVuscuXKOcWrcePGcZ9DQwikk8BO6eyMviAAAQhAAAIQgAAEUiewefNmW7p0qd1www3WqFEj57p24okn2uOPP+6i1ul4tPLRRx/ZGWec4doPHjw4WhPf1EnZUyCJv/3tb86NLxElSpNo0KCBXXDBBb6ZD4IEjwCKVPDWnBlDAAIQgAAEIOBjAtOnT7fTTz/dmjVrZq1atbLRo0fbn/70J1MY8BdeeMHq169vDz/8cMQMxo0bZ9dcc40tXLjQZMm67777bPLkyRHt/FAhq1nz5s1dQAkl2E20HHfccTZs2DCS7yYKjvZpJYBrX1px0hkEIAABCEAAAhBInoCsUFKeZsyYYe3bt7cmTZrYbrvtZpUqVXKdbty40ebPn2+LFy8uNsgXX3zhlKglS5YU1a9bt870z09l0qRJzgIlZe+bb75JSjS5Nt59991E6UuKHielkwCKVDpp0hcEIAABCEAAAhBIgcAbb7xhs2fPtquvvtqee+45p0SpO+19KqlI2dp9991LapKzY5JdbnxfffWVm9ecOXNSkuXYY4911qyUOuFkCKSBAK59aYBIFxCAAAQgAAEIQCBVAsuXLzfta9L+p8suu6xIierVq1epLnpy93vllVesTp06qYqR1vOVVLdbt2529NFH24UXXmipKlGyRt1yyy1FbNIqLJ1BIEECWKQSBEZzCEAAAhCAAAQgkAkCUqBkWapQoUJRZL5ff/3VpEhpf1Ro2XvvvUM/uvfaNzR8+HAbMGCA+5do8IaIDlOokAXq2WeftaFDh9rMmTNt27ZtKfT2+6knn3yyC6bxew3vIJA7AihSuWPPyBCAAAQgAAEIQKCIQM2aNe3ll1+2f/3rXyb3NRW5xYUrIVWqVHFWmaITQ94okl337t1t3rx59t5775lCpmezeG58Tz/9tHXt2tVFGEzX+FIe27ZtaxUrVkxXl/QDgZQIoEilhI+TIQABCEAAAhCAQPoI1K1b1/RPRRaqhx56yOQeF1oOOOAAkzIVqyi5rdwETznlFFPI9GyWKVOm2G233Wbff/992pUohUlv2bJlNqfDWBAokQCKVIl4OAgBCEAAAhCAAARyQ0AhwrVnatOmTUUCyGo1cODAmIqULEIdO3a0qVOn2rXXXmt77bVX0bmZfKP9Wa+++qp99913Lvx6usc68sgjXRTDdPdLfxBIhQCKVCr0OBcCEIAABCAAAQhkkMD27duL9V61alWXR6pYZcgH7U36+uuvTW5wCsqQjSIlSlYo5a7KRClXrpw1bNgwE13TJwRSIoAilRI+ToYABCAAAQhAAAKZIaAgDVu3bk2q8z/84Q9WrVq1pM6N5yS5HX788ccu39WTTz6ZMSVKslxwwQX2yCOPxCMWbSCQVQIoUlnFzWAQgAAEIAABCECgdAJyzbvppptsw4YNxRorol+sIre+YcOG2c8//2wPP/xwRhQpRQ/U/qshQ4a4PFeKKpjpoj1ju+yyS6aHoX8IJEwARSphZJwAAQhAAAIQgAAEMktAikPZssVv05Rw9/bbb7edd9456uCK1Pfggw9a9erVrU2bNlHbpFK5fv16p9y988479ttvvxXbu5VKvyWdq9xT2XJRLEkOjkEgGoHsxsSMJgF1EIAABCAAAQhAAALFCCi4glzaQoui8J1xxhmhVcXeK+y5IvZ16NAhrSHCZelSND4FrxgxYoTLaRUaAKOYEGn8oCS+/fr1s0qVKqWxV7qCQPoIoEiljyU9QQACEIAABCAAgbQRUPS9/fffv6i/PfbYwxR4IVqZMGGCvf322y7cebgCFq19PHXaB/XFF1/YVVddZeeee65L9qtgFtkoCpZxww03xIxOmA0ZGAMCpRFAkSqNEMchAAEIQAACEIBADgjUrl3brrjiiqKRx40bZ0888UTRZ72RBapz584uUe1BBx1kiqAn1750FCUGPuecc+y1117LaDCJaLK2aNGCcOfRwFDnKwLFnW99JRrCQAACEIAABCAAgWATkFVmxowZNn/+fJs1a5YNHTrUhT/faaf/PQuXIjVmzBhr0KCB9erVy2rUqJE2YH/+85+tefPmLoDFtm3b0tZvaR1pL1i9evVKa8ZxCOScAIpUzpcAASAAAQhAAAIQgEB0AgcffLBz2VP0PkXxk1VKryrKMVW5cmV7//33nQIVKwhF9J5Lr1Uy3549e5qUNkXpy4Zbn5QozU/7vCgQ8DsBFCm/rxDyQQACEIAABCAQaAJSkCpWrGh9+vSx1atXF2OhY/vtt1/MSH7FGifxoXz58tajRw+TRWrw4MHuNYlu4jpFkQpvvPFGe/zxxwl3HhcxGuWaAIpUrleA8SEAAQhAAAIQgEAcBGQh0r9sFylTigiYacuUrFEK277bbrtle4qMB4GkCBBsIilsnAQBCEAAAhCAAASCQ0AKnCxTUnQykRxXSppCuytgBgUC+UIARSpfVgo5IQABCEAAAhCAQA4JyDLVrVs3a9WqlbNOpVOUAw44wF544YW05r9Kp3z0BYFoBHDti0aFOghAAAIQgAAEIACBCAKyTGXCza9mzZq2zz77RIxHBQT8TACLlJ9XB9kgAAEIQAACEICAzwh4bn6XXHJJWiSrU6eO9e/f32TxokAgnwigSOXTaiErBCAAAQhAAAIQ8AEBKT2tW7d24ddTEadcuXJ28cUXm5IPUyCQbwRw7cu3FUNeCEAAAhCAAAQgkGMCyim1ZMkSO/PMM61s2bI2YsSIpPJMXXTRRdapU6ccz4bhIZAcARSp5LhxFgQgAAEIQAACEAgkASlRTzzxhC1atMheeeUVp0ApZHkySXsPPfRQwp0H8ioqjEmjSBXGOjILCEAAAhCAAAQgkHEC//3vf61Lly42YcIE69evn0sErKTAiuaXaNLec8891zp27JhxmRkAApkigCKVKbL0CwEIQAACEIAABAqIgJQoWaI+/vhjp0TVrVu3aHZeND9VDBs2rFQ3v/PPP99efvllq1KlSlEfvIFAvhFAkcq3FUNeCEAAAhCAAAQgkGUCcufzLFEvvfRS1OAQUqZ69uzpckyV5OZXoUIFe/TRR1GisryGDJd+AkTtSz9TeoQABCAAAQhAAAIFQ8Bz5xs/frz17ds3qhLlTVbR/Hr06FFi0l5F6KtWrZp3Cq8QyFsCWKTydukQHAIQgAAEIAABCGSWQEnufLFGljKlpL0q4W5+NWrUsEGDBln16tVjnU49BPKGAIpU3iwVgkIAAhCAAAQgAIHsEYjHnS+WNLHc/CpXrmx//OMfY51GPQTyigCKVF4tF8JCAAIQgAAEIACB7BDo2rWryZ1P0fmSSZgry1RoND9ZoZ5++mlTPQUChUAARaoQVpE5QAACEIAABCAAgTQR8Nz5Jk6cGBGdL9EhZJmSMnXxxRfbvvvua8ccc0yiXdAeAr4lgCLl26VBMAhAAAIQgAAEIJBdAp47nyxR/fv3T8oSFS5xxYoVrVmzZuHVfIZA3hMgal/eLyETgAAEIAABCEAAAukhkKo7X3qkoBcI5AcBLFL5sU5ICQEIQAACEIAABDJGIJ3ufBkTko4h4DMCKFI+WxDEgQAEIAABCEAAAtkkkAl3vmzKz1gQyBUBXPtyRZ5xIQABCEAAAhCAgA8I4M7ng0VAhLwkgEUqL5cNoSEAAQhAAAIQgEBqBDx3vgkTJqQcnS81STgbAvlJAEUqP9cNqSEAAQhAAAIQgEDSBHDnSxodJ0KgiACufUUoeAMBCEAAAhCAAASCQQB3vmCsM7PMLAEsUpnlS+8QgAAEIAABCEDANwRw5/PNUiBIARBAkSqARWQKEIAABCAAAQhAoDQCuPOVRojjEEiMAK59ifGiNQQgAAEIQAACEMhLAnLn8wJL1K5dOy/ngNAQ8BMBLFJ+Wg1kgQAEIAABCEAAAmkmIEuUtyeqb9++Vrdu3TSPQHcQCCYBFKlgrjuzhgAEIAABCEAgAAS0J6pLly42fvx4QpwHYL2ZYnYJ4NqXXd6MBgEIQAACEIAABLJGQEqU586HJSpr2BkoIASwSAVkoZkmBCAAAQhAAALBIYA7X3DWmpnmjgCKVO7YMzIEIAABCEAAAhBIOwG582lP1AcffIA7X9rp0iEEfieAa9/vLHgHAQhAAAIQgAAE8p4Ae6LyfgmZQJ4QwCKVJwuFmBCAAAQgAAEIQKAkArjzlUSHYxBIPwEUqfQzpUcIQAACEIAABCCQVQK482UVN4NBwBHAtY8LAQIQgAAEIAABCOQ5Adz58nwBET8vCWCRystlQ2gIQAACEIAABCBghjsfVwEEckcARSp37BkZAhCAAAQgAAEIJE0Ad76k0XEiBNJCANe+tGCkEwhAAAIQgAAEIJBdArjzZZc3o0EgnAAWqXAifIYABCAAAQhAAAI+JoA7n48XB9ECRQBFKlDLzWQhAAEIQAACEMhnArjz5fPqIXuhEcC1r9BWlPlAAAIQgAAEIFCwBHDnK9ilZWJ5SACLVB4uGiJDAAIQgAAEIBAsArjzBWu9mW1+EECRyo91QkoIQAACEIAABAJKAHe+gC480/Y9AVz7fL9ECAgBCEAAAhCAQJAJeO58ffv2tbp16wYZBXOHgK8IYJHy1XIgDAQgAAEIQAACEPgfAdz5uBIg4G8CKFL+Xh+kgwAEIAABCEAggARw5wvgojPlvCOAa1/eLRkCQwACEIAABCBQ6AS6du1q48ePN9z5Cn2lmV8+E8Ailc+rh+wQgAAEIAABCBQUAc+db/jw4TZy5Ej2RBXU6jKZQiOARarQVpT5QAACEIAABCCQlwTkzvfss8+agkuUK1fOateunZfzQGgIBIUAilRQVpp5QgACEIAABCDgawJy5+vcubP9+uuvtmbNGuvfv79NmTLF1zIjHASCTABFKsirz9whAAEIQAACEMg5AbnzPfnkk/byyy9blSpVrHLlyjZ37ly7/vrr7ZJLLrFx48blXEYEgAAEIgmgSEUyoQYCEIAABCAAAQhkhUBodL63337bZs6cae3atSsae8mSJXbdddfZDTfcYIMGDTK1p0AAAv4gQLAJf6wDUkAAAhCAAAQgEEACXrLd3r1722GHHeYI/OlPf7I999zTNmzY4D4vWrTIXnzxRVMACr1Xu3POOcfKly8fQGJMGQL+IYBFyj9rgSQQgAAEIAABCASEgNz5tB/KC3HuKVGaftu2ba1Tp05OmQrFoX1TDz/8sLVq1coeeOABt5cq9DjvIQCB7BJAkcoub0aDAAQgAAEIQCDgBOSe97e//c3Gjh0bM0/UnXfeaaeddlpUUlu2bHEWqjZt2jhFbPPmzVHbUQkBCGSWAIpUZvnSOwQgAAEIQAACEChGQO58H3zwgfXr1y9mnqidd97ZbrvtNqtQoUKxc70PmzZtslGjRtlll11ml19+uQtIwf4pjw6vEMgOARSp7HBmFAhAAAIQgAAEAk6gJHe+aGhOPPFEa9y4cbRDRXWrV6+20aNHW4sWLZx1C2WqCA1vIJBxAihSGUfMABCAAAQgAAEIBJ1APO584Yx22203F8Fv3333DT8U8Xnt2rVu31Tfvn1t/fr1hrtfBCIqIJB2AihSaUdKhxCAAAQgAAEIQKA4ASXbLc2dr/gZ//vUtGlTF3gi2rHwOk+ZOvzww51ShTIVTojPEEgvARSp9PKkNwhAAAIQgAAEIFBEwHPnkxIla1FodL6iRqW8ueiii+z0008vpdX/DkuZWrhwofXp08cFq1AEwOXLl8d1Lo0gAIHECKBIJcaL1hCAAAQgAAEIQCAuAsm480XruHr16vbcc89ZlSpVoh2OWqdgFFOmTLHBgwdb+/btbenSpSTzjUqKSggkTwBFKnl2nAkBCEAAAhCAAARiEkjWnS9ah/Xr17eLL7442qFS6xRmvWHDhvb444/b7NmzS21PAwhAID4CKFLxcaIVBCAAAQhAAAIQiItAOtz5wgdSOPR69erZLrvsEn6o1M+SR+5+UqS05+r+++8nmW+p1GgAgdIJoEiVzogWEIAABCAAAQhAIC4Cnjuftyeqbt26cZ0XT6Nrr73WlIR3p52Su33btm2bzZ0717p16+aCUWg/FQEp4iFPGwhEJ5DcNzF6X9RCAAIQgAAEIACBQBPw3PkUWCKdSpSgli9f3ilB7dq1S8oy5S3Mli1bXDLgBg0a2BVXXEEwCg8MrxBIkACKVILAaA4BCEAAAhCAAATCCWTCnS98DH3ea6+97N5777U999wz2uG463799Vfn7vfmm29akyZN7IILLrCvv/467vNpCAEImJUFAgQgAAEIQCAfCMgF6cUXX7QFCxYk7dqU6DyVELVDhw5Wo0aNRE+lfYAIZNKdLxrGypUr25FHHmkTJkyIdjjhumnTppn+6bv16quvJhWiPeFBOQECBUAARaoAFpEpQAACEMh3AjNnzrQvv/wypoKkPSGTJk2yAQMGmMI6Z7NMnTrVhY/W/pLwojq5RymiGiWYBKREhbrzJZMnKlFylSpVsv79+7vcUvPnz0/09JjtZZFq1aqV/fWvf7VzzjnHuRLGbMwBCEAAixTXAAQgAAEIZI+Abjr11HvDhg1uUEUiW716td16663uiXj2JIl/pPHjx5v+RStS8OrUqWM9evSw/fbbr1ieHkVX++Mf/2iyalEKk4Dc+aRE6frIxJ6okqjJSlqrVi37+eef0xqBT5YpBbQ45phj7JZbbnHKmhQ3CgQgEEkAi1QkE2ogAAEIQCANBKQ0yU3oq6++cpamU0891VmdBg0aZCtXriyyPsmqo/0a+Vgk+/fff28XXnihm0+ZMmVs+/btbipSpLTvRLl/PvvsMxcdTS5ZN910k9vnko/zRebfCWTbne/3kf/3TtfXW2+9ZVdeeaWNGTMm/HBKn2X1lQVYVuLTTz/dBg4cmFAy4JQG52QI5BGBMjt+8P/3i+8zoVesWGFHHXWUPfHEE9a6dWufSYc4EIAABCAQTkA3lnoyv2rVKhdRbMaMGfbcc8+ZQiyrSIlYt26d6Sl+kIrmLaublC7d/F5++eV23nnnOQ76fNZZZ1nFihWDhCTv56pr3XPn6927d073FMn1VBakWbNmZYxr8+bNncuf3FjTHYkwY0LTMQSyQABFKguQGQICEIBAIRJYtGiRU4zk3rZ8+XKnNH3yySdFilOm5rz33nvbHnvsUWT5ycQ4siz99ttv9ssvv2Si+6I+pUgdffTRLqCFXqVslStXzrkEyu2R4j8CehDwt7/9zcaOHetCiPtBsXjsscfs4YcfzjisQw45xC655BK7/vrr7YADDjCu0YwjZwCfE8C1z+cLhHgQgEAwCchlZ/LkyW7yjRo1smbNmvkCxNKlS13kPLn+6EZy3rx57mZKzg2yNqWjaM/RySef7JSKaP3p6bjcBKV0ZKpIOdRerpdfftkpVOHjlC1b1n744QebMmWKKSdPskU35erj22+/NfUpjgpvfemll9quu+7qXAaPPfZYbliTBZzm8zx3vvfee883SpSmKCVclk+5zGayzJkzx5599lnnsqs9YU2bNs3kcPQNAd8TwCLl+yVCQAhAoNAJ6Ib9n//8p5umnvAuXrzYunTpUmQNURADRdGqXr26cwerWbOmnXTSSVnDoht9RQaT9USRwqRApVp233135yIk60uoQqTcOJr7cccdl+oQGT9fLuj/+Mc/rFevXhHuirNnz3bufKkKse+++7ocP1IexeyMM84geEWqUJM830/ufOFTkEJ+0UUX2TvvvBN+KGOfZZG6//77rXbt2nbaaaeh7GeMNB37mQCKlJ9XB9kgAIGCJyAlSvsbtLE73qKb627durmoWrqZyURUuCVLljgXPe1zuvnmm23ZsmXxihfRTspRhQoViuqlOCk4g/ZPebLrJtUr+eYuJNklc+irlE3lvPrXv/7lglBoztonlYr1Su6Md911l9tjtXXrVqtWrZr753HjNXME/OjOFz5bfWe1p/yjjz4KP5TRz/pud+7c2bmn5tt3N6Ng6DwQBFCkArHMTBICEPAbAd10y/KUqBLlzUM31XL9uueee+zuu+9O+Wmw5NFNvlzatGldcknJU/3GjRu9YUt91fmyMqlIeZCi9OCDD1rbtm2LWW0UXKF8+fKl9pfPDdavX+/CvOvmUsmEb7vtNpNLmBipiHeoNS6eucoqpXWXC6A2/g8ZMsQpU7IW6h8l/QT0HVBgCc+dLxt5opKdhfJAyTokpT2bpWrVqs4VWdYpCgSCRIA9UkFabeYKAQj4goBuzOS+1q9fP9NT5GSKlBv9Uz+6Mb/zzjtTUqaUB0l7HhRkQTmekpXr7LPPtnvvvbdoSlKktH8jiDf52uukf17Rek+fPt19lHLVvXt3GzVqlHc4rlftTfMSEmsP3V/+8henWMnVU/0R/S8ujHE38pSoDz74wH1f/axEaVKyUiq/VLYVKVns9I8CgaARQJEK2oozXwhAIKcEdLMh5UdPuNORO0kBHhSxS5YNKVOJKCyymChPjFzsPv7446SDRRxxxBHWvn17p9Bpn4b2clEiCVSpUsUa7Qgc4pV69eq5PU9y05My/OGHHzq3rDVr1nhNSnzVmityosrChQudJfHggw+2Rx991PRKSY1APrjzhc9Q3z3lfFL+smQfhoT3Wdpn/eace+65LopfaW05DoFCI4BrX6GtKPOBAAR8S0BPt5UbL11KVOhEtU/hgQceKNEy5T01HjFihCkYgv6NGzcuLgXKU9DkjtekSZOivU1SALSH6sgjjwwVh/dJEJBirb1yr732mkm50tpI2ZXClMjT/hNOOMElUdXNrSL+6Xxv/ZIQK5CneJaofHDnC18gya7w5AoMk+mi73/Lli2tT58+xayvmR6X/iHgFwIoUn5ZCeSAAAQKmoCnRCn/jFznMlEU1KFTp05RlSndpCtQgaLMKTeSlyQ3Hjm050k3ZsqXoxv8Dh06pORGGM+YQW+j60XWQu2j0s38yJEjbe7cuQlhUVCSRjssYFJ+pWRjpYoPn6dEyZ0v18l245M4spWS9Crp888//xx5ME01nhKlqJW4lKYJKt3kHQEUqbxbMgSGAATyjUC63flKmr+CUMhV77rrrnMBDhQ4QntnlP9FN1fxRo1TNEApTApuoH0+l19+ubsh100mkblKWoHMHJP1UAqVriXtZUtUqZL7Za1atZxCrBxdoXu3MiNxfvYqvn5LtpssyTfeeMM6duyYEWVKFk79JkiJ4lpKdoU4rxAIoEgVwioyBwhAwLcEPEtUJtz5Yk1agQdkwXjllVecG+GqVatKjQ7n5XNS1C0Fh5C7Dsk2YxHObf3EiRNtwIABbl+V9kh99tlncSvIslrKSiVFWy6auPz9vpaeJSof3fl+n0Xxd7JQKzR5OotnicKdL51U6StfCaBI5evKITcEIOB7Ap4S9fTTTycUQjzVielG58ADDzQpUPG48CnKlxQ9vcoShQtYqiuQvfO1xnLXlNXxm2++ifs623vvvV3SY4VkV7hsL59X9iT310ieEjV+/Hjr2bOn+T06X7z0lMLgzDPPTNiCGat/T4nCnS8WIeqDRgBFKmgrznwhAIGsEMimO1+yE1KACCXw1KusFJT8JaA8VbJCSrFSBMZ33nknrgAVcgU95ZRT7K9//at7zV8CyUteSO580SikyyqFO180utQFnQCKVNCvAOYPAQiknYBnicqmO18ik5DrnwJHKNqekrpSCouAlCmF2Nf+OIVUjyfM/iGHHGKXXXaZi/Kn0NlBKZ4lqpDc+cLXbsaMGXbhhRfaDz/8EH4o7s+eJQp3vriR0TAgBMgjFZCFZpoQgEB2CHhKlDasx3MDmx2p/jdK1apVXVhsJd9V4k5KYRKoVKmSC5ggS4tyjL377rsu39TKlStjTljBSJ588klTrqv58+fb4YcfbgpKUcguf/qu6nuaL8l2Yy5eKQfkpjh48GBr27atU65LaR5x2FOiCCwRgYYKCNhOMIAABCAAgfQQ0I2rlycqUyHOk5G0cuXKJovD0KFD7fXXX0eJSgZiHp4jV6xHHnnE/v3vf9szzzzj9sApqEhJZcWKFXbHHXfY+eef765lXdOFWDQvWYxliVIUxELZExVrrZRbrFWrVrEOx6zXNeTliSLEeUxMHAgwARSpAC8+U4cABNJHQE+35U7lJ3c+BRS48sor3c3i5MmT3abz9M2YnvKBgBeqXteBovvJnVOBSEorsqYqjL4sWtp/VWgKlSxRnhIlN9cgFO2FlMUxkSJ3T9z5EiFG26ARQJEK2oozXwhAIO0EPHc+Refzizufnh4r7PGwYcNcdDa58nk31WkHQIe+JyDLQs2aNYtyJN13330ur1RJgutafv755+3Pf/6zXXPNNSZlXNd6PhfJLxfGQnfni7ZGzZo1cxZKueqVVtRGyjfufKWR4njQCZT+bQo6IeYPAQhAoAQCoe58GzduLKFldg8pAetNN92U3UEZLS8IyAIj66nCpitan0Lex3L5k4uqglbILVTuflKo5P6Xj8Vz5xs7dmwg3PmirVG9evVMucRKKrjzlUSHYxAoTgBFqjgPPkEAAhCIm4DnzucnS1TcwtMw8ASUL0x7qD799NMil7+SrBUKVvHmm28699W5c+fmHb9nn302cO584YukUPd33nmnlS9fPvxQ0Wfc+YpQ8AYCpRJAkSoVEQ0gAAEIRBLw3Pm018JPlqhISamBQGwCoS5/yj2lfwqPH6usW7fOBa44/fTTnRKWD3unPHc+WaL69etX8IElYq2d6rXeDzzwgF111VURzXDni0BCBQRKJYAiVSoiGkAAAhAoTiDUnc9P0flCpSTCVigN3sdDoH79+ta0aVO3r06Wi5JcwBYtWmSyxMqitWDBAlu7dm08Q2S9De58kci1V/Lqq6+2Qw89tOhgsu5848aNM/2jQCCoBFCkgrryzBsCEEiKgJ5uKzKfn9355LZz6623JjU/ToLAQQcdZGPGjLEXXnjBFDo/lrvfpk2bXDCKo446ym688UZfKlNBjM4XzxV8zDHHuPD2u+++u7NSyZ0vmcAS3377rd17770usmM849IGAoVGgIS8hbaizAcCEMgYAc+dT0qUn935FOL4D3/4Q8Y40HHhE5BFs3Xr1s4NTgl6H3zwQVPS3vCiyH76N3z4cNu2bZv17t3blBA418V74BHE6Hzxspd7pva8qRx77LGWjBW7evXqTomaN29eoF0m42VOu8IjgCJVeGvKjCAAgQwQkIuQ3/JExZqmwhwHJTdOLAbUp05ALmDHHXec+6fcU1KsoilTGklK1MiRI+3HH390yZ+1D6d27dqpC5FED6FKlJLt8l2IDlEKb+PGjaMfjLNWIdIVeETRHEePHk2y7zi50axwCODaVzhryUwgAIEMEfBuzPzszudNvUKFCia3HQoE0knghBNOsAEDBljLli2tQYMGUbuWMqVcU4MHD7Y2bdq4vVNRG2a4Uq63SrYr6xhKVIZh7+j+5JNPdsrU8uXLMz8YI0DAZwRQpHy2IIgDAQj4i4BniXrqqad87c4nal4SXm0kp0Ag3QQUgOLVV1+1t956q8TIfhp3ypQpdsUVV7gb7HTLEas/PfBQsl2i88UilJl6uQWed955LgF4vuYYywwZeg0CARSpIKwyc4QABJIi4ClRcunz854oTU5K1OOPP+7yASU1WU6CQJwEFIxi2LBh1rBhwxLP+Pzzz5074LRp02zp0qUmRSdTxbMao0RlinDsfvfaay/32zN16lT78MMPYzfkCAQKkACKVAEuKlOCAARSJ+DdmCnqlzbT+7nInU9KVIcOHfwsJrIVEAEpU3LhUz4iBTeJVf75z3+aghqcdtppzkoVq12q9UTnS5Vgaucr6IRcnxcvXmx6AEWBQFAIoEgFZaWZJwQgEDcBzxIldz6/5onyJuO58918882m4AAUCGSLgIJJ9O/f3959911r0aJF1DDp2je1Zs0amzVrllO6Jk6cmFbxPHc+7YkKerLdtIJNorMLL7zQuX327NkzibM5BQL5SQBFKj/XDakhAIEMEfCUqHxw5/MsUVKiKBDIBQEvsp8COzzzzDMuYl8sORTdrW3btjZp0qRYTRKq96zGhDhPCFvGGutaOOecc1z0xpkzZ2ZsHDqGgJ8IoEj5aTWQBQIQyCkB78YsX6Lzde7cGXe+nF4xDO4RUCjt22+/3QYNGmS1atXyqiNeFy5caO3atXPR/SIOJljhufMRnS9BcBlsfvfdd1uTJk2sffv2Nnv27AyORNcQ8AcBFCl/rANSQAACOSbgWaLyKTof7nw5vmgYPoLASSedZEOHDi3VMqW9VUriu2rVqog+SqvAna80Qrk7vssuu1jHjh1t/fr1du2117pkvbmThpEhkHkCKFKZZ8wIEICAzwl4ShTufD5fKMTLCwKeMlWvXj3bfffdo8osNz+FR1eAlEWLFsUdoMCzGsudT8l2DzvssKj9U5k7ArJOKnnzkiVLXKLm3EnCyBDIPAEUqcwzZgQIQMDHBLwbs3yJzvfYY4/hzufj6wnR/kdACXwVWOLMM8+MiUSBKP7+97+7qH4LFiyI2S70QKg7H0pUKBl/vT/88MPdfqmdduI2018rgzTpJsAVnm6i9AcBCOQNAc8SlS/R+aRE3XrrrUTny5srLNiCVqtWzYXlf/PNN03JfKMVfQfnz59vnTp1KtHND3e+aPT8W9e4cWPr3r277bbbbv4VEskgkAYCKFJpgEgXEIBA/hHwlKh8cueTEkWBQD4RaNCggV1wwQU2ZMgQk8tftCLLlPZLyc1v7dq1EU08q7GS7eLOF4GHCghAIIcEUKRyCJ+hIQCB3BDwbszyJTof7ny5uU4YNX0ElMB32LBh1rBhw5idys3vxhtvjFCmcOeLiYwDEIBAjgmgSOV4ARgeAhDILgHPEpUv0flw58vu9cFomSMgZerVV1+NaZnSd1OWKUV7++KLL1wACn1PvWS79evXz5xw9AwBCEAgCQJlkziHUyAAAQjkJQFPieratav9+uuvvp4DyXZ9vTwIlyQBzzLVqlWrqLmk5OY3cuRI++ijj5z1auPGjbjzJcma05IjII+FlStXutDtFStWNP2jQCAWASxSschQDwEIFBwBKVBE5yu4ZWVCeUbAU6ZKcvNbsWKFKcR506ZNCXGeZ+ub7+J+/PHH1qhRIzvmmGPs8ssvt6VLl+b7lJA/gwRQpDIIl64hAAF/EJAlqnPnzkZ0Pn+sB1JAoDQ3PxHasmWLC4+eTNJeCEMgEQKyQk2dOtVkKVVQn+uvv94GDhxotWrVcu9RphKhGay2KFLBWm9mC4HAEfDc+fIlOt+jjz7q/pAHbqGYcOAIxGOZ+vzzz2NG8wscMCacMQJvvPGGKWS7IkM++OCD7je4WbNmpr8b33//vbVp0wbLVMbo53fHKFL5vX5IDwEIlEJA7nz5FJ2vY8eOpcyIwxAoHAKeZSpWninN9K233rKrrrrKxo0bVzgTZya+IaCQ+wMGDLAyZcpYr169rEWLFkWylS9f3pRcePz48Xb11Vfb8uXLi47xBgIiQLAJrgMIQKAgCcgSJSUqX6LzYYkqyMuQScVBoEaNGi7sub6zs2bNstWrVxc7Sy5+o0ePtp9//tmOPfZYq1SpUrHjfIBAsgTkNnrddde5/XgnnHCCXXLJJcW62mWXXVywk0WLFtmHH35oM2bMMCWapkDAI4BFyiPBKwQgUDAEPCUKd76CWVImUqAEtDdFAWBeeukle+211yJuZEOnPWXKFJPFNlrS3tB2vIdAPAT0d0JJoEeNGmV77LGHnX/++bbzzjtHnCrFqWrVqqZrlQKBcAIoUuFE+AwBCOQ9Ac8SlQ8hzpUnCne+vL/kmECSBLxkuz169DC5+d17770lJu3VXpZoSXuTHJ7TAkxAfx+Ur0ylefPmdvfddweYBlNPlgCKVLLkOA8CEPAdAT1h9KLzKf+Mn4tyk5Bs188rhGyZJKCn+9GS7R588MFxJe1VVDWi+WVyhQq/7yFDhtiPP/5olStXtptvvjmqNUoUdJ2tWbMm5vHCJ8UMSyKAIlUSHY5BAAJ5QwB3vrxZKgQNOAHPne+dd96JmmxXlqlhw4bFtEwpae/w4cPtlltuMX3vKflFYPbs2c4Kn8uQ4pJh8ODBLsR+kyZN7LjjjosJ8e2333ah0cuWJaxATEgBPsBVEeDFZ+oQKCQCuPMltprab/Lpp5+aNlPrxlT5Us4991yeuiaGkdZJEJA7XywlyutOytTQoUOtdevWphDo0Yo2/+s6LiniX7TzqMstASnSH330kR1xxBEu0EMupLn//vvtyy+/dEOfdNJJ7ncwmhxy/+vZs6f7jYx2nDoIYJHiGoAABPKaAO58yS2flKhnnnnGbrvtNrvjjjusbdu29t577yXXGWdBIA4Csdz5Yp1ampvfsmXLrF27djZp0qRYXVDvQwJ169Z1YcalUCuseLaLXPUWLlzohlWQCQWSiFV0zW7YsCHWYeohYChSXAQQgEDeEsgnd77dd9/dHn74Yd8k27399tvt/fffN92sqqxfv95++eWXvL0WENzfBEpz54slfWlufnPnznU5plCmYhH0Z339+vVt+/btNm/evKwKqL8ZCu7jBZlQjihF6yupSE4KBGIRQJGKRYZ6CEDA1wR0Y5Yv7nwCueuuu9pZZ53lG6YK83vkkUc6lz4J1aBBA7v44ot9Ix+CFBaBeNz5Ys3Yc/Nr2LBh1Cbz5893lqnJkydHPU6l/whUqVLFlDtv4MCBWbUoylVv6tSpRUCUhFfuzRQIJEsARSpZcpwHAQjkjMCSJUvs7LPPdoqU36PzeZBk8XnyySd9mwNnt912M0USpEAgnQQSdeeLNXZpbn6yTF199dW2YMGCWF1Q7zMCV155pW3dutUU0t6vRe6jmzZt8qt4yOUDAgSb8MEiIAIEIBA/Ad2Y9e/f3/T0ecuWLfGfmIOWUkyuuOIK27x5s40YMcIlHJUYL774ou211145kIghIZA9AqHufP369bPDDjsspcE9Nz99p6IFoNBNr/6pHQUC0Qi8+eabtmLFiqJDsma2atWq6HPoG0Xpmz59ui1evNhVy3KF9SqUEO9FAEWK6wACEMgrAnLne/rpp32vRFWoUMG5rsgfX1HxatSoYc8++6wL27zTTjtZnz59cq5M6Sn+Tz/9lFfrj7D5QyAVd75Ys5SSJKXs9NNPj9jTt27dOhc45dVXX0WZigXQZ/VyKdY+KVnsM/1wacaMGXbfffcVeQUceOCBVq9ePYsVhl2WKClSXjnjjDNKDJPuteM1WARQpIK13swWAnlLwAssoSSefnfnkxLlJdsVcO1HeuSRR9yrIuW98sorTrmSMpUrdzrx7NSpk+nmQmW//fZzr/wHgVQJeJYoRYFMhyUqXJ7999/f9t133whFSu1kqZLFSqHTvUAq4efz2T8EunXrZpdddpndeeed7lrJpGTyYAh105N7uK7PWEXBeCSbzttnn31ckAosUrFoBbeePVLBXXtmDoG8IaAbM1miunTpkndKlAdZypQUl7vuusvKly/v3PxuvPFG9yTWa5PNV90Q6EZCRYqfbmQoEEiVgKdElZYnKpVxKlWq5BL5xlKUpExdddVVtnz58lSG4dwsEJAVSoqv1kou0Jku8g6Ip+hB0/PPP18U+vzMM8+0E088MZ5TaRMwAihSAVtwpguBfCSQL9H5PEuU3PmiFSlTDzzwgHM/Ujj04cOHWy6VqW+//daJ2bhx42IuK7oZ1j8KBBIlkAl3vmgyKImqIr4pkXS08u9//9sl/Y12jDp/EdDvz/fff5+VPHZyq46nfPDBB24frtdWSZ8VkIcCgXAC8V1R4WfxGQIQgECWCGgfj9wv8smdTwpTrCJLkNz87rnnHpMyJTe/66+/vshvP9Z56a7v1auXe6qvfvfee2+3iVqsGzVqZCeccIL7d++995rCBVMgUBoBKd5yu/Xc+ZQnKNNFN7dvv/22C30ePpZcuBTUZe3ateGH+OwzAuXKlXO/hdn4jfcsUlKo5B4aqygJryePPAgUrp0CgWgEUKSiUaEOAhDwBQFFV7r22muLstD7QqgoQniWqFtvvTXK0cgqz81PSXE9N7+bbropq25+2uDtKUmKgHjddddZjx49XG6pk08+2bRxX/sXZEHLhstNJCVq8oVANtz5YrGQwiaXq2iWBiVdzaXFN5bM1BcnoH2i7dq1szFjxmT8N9C7ThRookOHDsUF+f9PCnwxevRo90ntb7nlFrdXKmpjKgNPAEUq8JcAACDgXwJSpKZNm+ZfAXdI5ilRsdz5YgkvZeqhhx4qcvN77bXXcnbTp4ATyuWiCFpSnvRPFislEdZTfe3t0p4BCgSiEciWO1+0sVV36aWXun/hx2V90HWNMhVOxn+f9VszcuRI6969e0aF8yxSyjlWvXr1qGPpt09u13rIpeiQrVu3doGCojamMvAEUKQCfwkAAAIQSJaAp0TJElWSO1+s/kPd/OR/nys3P7mt6AZGNxde0d4TbeqXi5TCSa9evdo7xCsEHIFcuPNFQy+LhhT+li1bRuT50QMAfa/kpkrxLwEFvtH6KahDJotnkapWrVrUYXRNz5w500VVlcuzrp1U859FHYjKgiGAIlUwS8lEIFBYBPQHTU+TQ8PV+mmGoUpUKnJ5bn533HGHewKqJ6GZdvNbsGCBffrpp05szeO5555zT11D56GIaHL1082E9xQ39Djvg00gl+580chLmZJlrGrVqtEOuzD/WFWjovFFpX5vBgwYYMcee2xG5fF+y2L9XVFgI1nGpHD95S9/cR4HGRWIzvOeAIpU3i8hE4BAYRIYP368C3muHB5+K54Slag7X6x5hLr5aeN1pt38FOhi6tSpTpyjjz7aLrjggqiiKQFl5cqVnTL75ZdfRm1DZTAJSGlRYIm+ffv65om9vpe1a9eOuiDaL/XEE08QjTIqHX9UyiqfjGU/Xun1W3bAAQe45nJfnjhxYsSpH3/8sds7KnfRnj17EqkvghAV4QRQpMKJ8BkCEPAFAW349YIh+EKg/xfCU6KSdeeLNZdsuvmtXLnSibHHHnu4iIHK5RKrlClTxkU+U2TB6dOnx2pGfUAIhLrzSYnKRnS+eNHqOh40aJA1bNgw4hRFYFMybMlMCSaBmjVr2pAhQ6xevXougJFclr2ivzWtWrUyhc2XEiVXUbk2UyBQGgEUqdIIcRwCEIDA/xPwlKh0WaLCwYa6+Xl5pjLp5nf44YfbRRddFC5G0WdZHBTwQ0U3FZo/JbgE/ObOF20lDjroIGfJ3nPPPSMOS5nSjbRcWynBJHDMMce4a6BOnToukJEC7ShE/ogRI+zdd9+10047zV566SWTqygFAvEQQJGKhxJtIACBwBMIVaIy6X7iufndeeedlmk3P1mbZAmLVmbPnm2SYc2aNS7HyxVXXGF6oksJLoFnn33WJbn1kztftNVQHjQleY1W5NIqy8OiRYuiHaYuAASkTH344Yf2pz/9ye2DOv74423UqFHOEqVrGyUqABdBGqdYNo190RUEIACBgiTgKVHx5olKFYLn5ielSntRFDlKm6T79OmT8h95PX1VssnSivamee322Wcfa9u2bWmncLxACXiWKC/Zrt+jmOn7o+/qV199ZUoyHV6UN+311193SbHDj/E5GARq1KhhyuN36qmnOkt78+bN2Q8VjKVP+yyxSKUdKR1CAAKFRMBTojLlzheLVSbc/BS1TDeY2nhPgUA8BDwl6p133vFVYInSZD/llFNs4MCBphvmaEXuW8uXL492iLqAEFDePKV8uOSSS1CiArLmmZgmilQmqNInBCBQEARClahMuvPFgpVuNz9tqP7kk08IZx4LOPURBPLFnS9C8B0VUqaaNGkS7ZALNqCUAwpqQ4EABCCQLAEUqWTJcR4EIJBRAieddJLLKp/RQUro3FOi0h2dr4Qhox7y3PwUsjxbSXt1c6kIZ3otX768tWnTxuTeRwkOAS86nyxR/fr181V0vkRW4eabb46aW0rW2dGjR9ucOXMS6Y62EIAABIoRQJEqhoMPEICAXwhUr17dnn766ZT3BCUzH0+JyrY7XyxZ0+XmpySTu+66a6xhiurffvtt80IDd+jQwR577LGYQSmKTuJNwRDw3Pl0HfTu3ds3eaKSASz3Lf2OKIdQeNE+wL///e/klgoHw2cIQCBuAihScaOiIQQgkG0D8+N7AABAAElEQVQCCgGuyHLZLKFKVC7c+WLNNdTNT5apZJL2Ks/Oww8/bFWqVIk1jMvd1aNHD9MTe0UNPO+881CiYtIqzAOeO18+W6JCV0aBUm655ZbQKvde17gSs44ZMybiGBUQgAAE4iGAIhUPJdpAAAI5ISC3tj/84Q8u/HY2BPCUqFy788Waq+fmd/fddyft5teyZUs74ogjog6hG8vnn3/evvvuO5P16pxzznEhgqM2prLgCBSKO1+0hVHeILmphhfllvrhhx/Cq/kMAQhAIC4CKFJxYaIRBCCQCwJKrql8H7Vq1cr48J4S5Rd3vlgTlmXqgQceMG2UTzZp71lnneXOVS6dSZMmuaEUiEKh1p988knTzeWFF15o/fv3d4l4Y8lCfeEQKCR3vmirosTT+m7rAUF40XUvCy/FfwT0cEcpG3R9UiDgRwKRvyh+lBKZIACBQBKQ0lCtWjXTPp1MFilRjzzyiLvR8pM7X6w5yzL10EMPuYS5ybj5KdHufffdZ6tXr7arrrrKuTedfPLJ9sQTT7g9addcc40LdU1iylgrUHj1hebOF75C+s60b98+6kOZFStWuAcTM2bMCD+Nzzkm8MYbb9i5557rXI5zLArDQyAqARSpqFiohAAE/ERAT5PPPPPMjIjkWaKUnDEflCgPgufmJ8uUp0yddtppNmHCBK9JzFedK6vW/fffb1u3bnXufMqpI6VKUdpefvnlEvdRxeyYA3lHoJDd+cIXo3bt2i631MEHHxx+yJYtW2Y9e/aMqKcitwTWrFljP/74IykbcrsMjF4CARSpEuBwCAIQ8AcBRfAbNGhQ2sOhh1qi/DHTxKSQ4ifLlJQpBYb48ssvrUuXLvbuu++W2pHOvffee+2rr76yadOm2TfffGPPPfecHXnkkaWeS4PCICAlSpaoQojOF++KKLeU9kBGK9OnT3dBVqIdoy53BLZt25a7wRkZAqUQQJEqBRCHIQABfxCoUaOGDRkyxFq0aJEWa4mnRCmaVz5ZosJXI9TNT5vpx48f756sx5NoVOdWqlSp6J8sW5TgEPCUqEKJzhfvyh166KFR86L9+9//tq5du7IfJ16QWWinfbL6XZKSS4GAHwmgSPlxVZAJAhCISkDK1Ouvv24vvviiHXLIIUlF81M+mZo1a7o9UfnmzhcVyo7KUDc/KVNjx461G2+80W3SjnUO9cElECR3vmir3LhxY7cfUFbc0KIgK3JrVXADij8ING3a1JRU+YYbbrAFCxb4QyikgEAIARSpEBi8hQAE8oPA+eefb5MnT3YKUTSJFZlLCkXoP0W4kyI2cOBA58bm9+h80eZVUl2om5/mqihkN910k8VjmSqpX44VFoEguvNFW8Gjjz7aucOGH1u3bp2NGzcuvJrPOSSgtdIeNgXHoUDAbwTK+k0g5IEABCBQGgEpDUuXLo0ZyalJkybWqVOniG7kzqd8MvnsyhcxqZAKz81PVdrv5IV07tWrl4vGF9KUtwElEFR3vvDlVi41RQPt3r27bdq0qeiwbta157BBgwZ22GGHFdXzBgIQgEA0AihS0ahQBwEI+JqAlChFmFu8eHGEnCeccIINHjw4LfuoIjrPgwrPzU+iBkmZkuVN14Mis4lBImX27NlO0VSo/UItniVKURm1JyroSoL23SgNwKuvvmrKpxZaZJWaP39+4BmFMsnl+3r16tlRRx3lAqP06dPH9tprr1yKw9gQKEYARaoYDj5AAAL5QEB7GBQSN7zIla9NmzaBVaI8Hp6bnz7LAuFZpvL9JkTJOZU4OLTIjfOzzz4zze2TTz6x8847zylFUhziLWPGjLH99tvPlD9LwUzCixQzXVv5Wjwl6q233kKJClnEPffc0xo2bBihSOkau+222+wPf/iDs0yFnMLbHBBQPjuFrNd3vFmzZtayZcscSMGQEIhOAEUqOhdqIQABnxOIFhJXTy4vvfRSn0ueHfGiufkpZ5T2TSkEdD4UWZnmzZvnbma/+OILFwhAgTSkPOmf5iPLgqxQSqpat25d+/7774umpja6Tkp71d657du326hRo5yiob68MaS8yXqjPXW6sVYUsXxLVIw7X9ElUeyNrh3ljvrhhx9cCoDQg3PmzHF1cvGj+IeAvvMUCPiJAIqUn1YDWSAAgbgIyHVvw4YNEW0vu+yywFujQqGEu/kNHz7c3TTKnUnKhx/3isnNauXKlU6RUXRG5cTS0+hZs2a5/W3KfeUpR7rZlbIlRSFd7j7aM/PPf/7TGjVq5HIKiaGUOOUeklIl9z+FzFe+LVl6/KxYeZYo3PlCvxXF31epUsUFrVEutfCiJNUUfxC45JJLbMSIEYSm98dyIEUIARSpEBi8hQAE/E9A+UT+/ve/R02cqZteSnEC4W5+X3/9tZ122mn2zDPP2JVXXlm8cY4+6YZ/y5Ytpr1Kcq+T0nTAAQfYqaeeameddZazPB1++OF2zz33uMiLnphSbHSuLAvpKrI8XXvttcVc+dq1a+fy2Eix++2331zobO3T0/XWrVs3ZwWVLJLDL9egp0Thzlf6lfG3v/3NufeFK1MvvfSStW3b1inPpfdCi0wSOPHEE93DDX3/KBDwEwEUKT+tBrJAAAIlEtDNqiJtyRUnvCga3+WXXx5ezecdBHRz/9BDDzkWCkChUMLaA6LiB2VK7nr33Xefbd682S644AJT7hjtVZKrZklWM80r3YqLxgvfD6UxZIHq27evYzZz5kx75ZVXnMvh559/bo8++qizkrVv395kMStJZtdBFv7DnS9+yLLOtm7d2rSuoRH8Fi5c6Nbc++7E3yMt001ADynOPvtstx7aI5UuC3S65aS/4BFAkQremjNjCOQtAbna/PTTT1Hl1z6XQo66FnXSCVRKGXjkkUfcGVKmtA9I7moquVCm9PT/wQcfNCVB1T8pTtqLpBxhflBEHJgY/2kv1uOPP+6Oymqm5NDauyHrj9zoFGGsS5cuObnZ8yxRuPPFWLwY1YoC+vzzzxcLPKEHN0OHDnU38IoGSsktASlPSqIcbX9sbiVj9CATKLNjg+12PwLQH3n9MXriiSfckyI/yohMEIBA9ggoUt8VV1xh7733XsSgskZp/w8bwyPQRFTo5lAKlVzS9PRde0QUDUt7ELJRlOxUa6hgDlpTKSAKEHLuuedmY/iMjjFjxgx3M67Q2XvssYezqGk/VfXq1TM6rte5p0R57nz169f3DvFaCoFVq1Y5q2N4KHSdJksISXpLAZiFw7JYK6Kigr34/WFLFnAwhE8IYJHyyUIgBgQgUDIB7UlRmOtoRQ9dUKKikYms8yxTUmQ8y5T2gjRu3DhjFhTd4I8fP965ZCpQiJ4oywUuWqjxSInzp0YWNeVo0oNAuU5OnDjRhVWXxUo34+l2QwwngztfOJH4P8t17MADDyxmkfLOVqoFKVg1a9b0qnjNAQGtkf5RIOAnAjv5SRhkgQAEIFASgTJlykQc3n///XPimhYhSB5VeMrUHXfc4fYDffDBB3bjjTc6C1G6pyElqnfv3nb99ddbjx49nDvfv//974JTokK5yco3bNgwl9dKrqhSql5++WWTxUpWuHQXMX766aft7bffdooclqjECWtf3MCBA+3QQw+NOFnrpj18suZSIAABCIQSQJEKpcF7CEDAtwT+8Y9/uGAE4QJKAVCSRkpiBOQaIxc/3eTvvvvuLmnvzTff7MKJJ9ZT9Na6uVeERa2PEgIrdLHCiheCC1/0GUfWSmFVIAoFpFAgg5NOOsnuvPNOkxuZ3JTSUcRZlii58ykYhqxilOQIKMy+coVFK1ovsaZAAAIQCCWAIhVKg/cQgIAvCSjIxJAhQ4pF1PIExdXDI5H4q6dM6eZeHBWJLh2WKeVdUuLfM8880yZPnmy9evWy4447zipVqhS4vQ3iKgvV7bff7ixGyn8mV1QF1Yi2HyfRVcSdL1FiJbfXdasHC+Hlyy+/dPtzwuv5DAEIBJsAilSw15/ZQ8D3BOROc8MNN7ikqOHCas9CkyZNwqv5nACBUDc/3fTLeiSm2tOUTJFlREqCckI98MADLgiIQocHvShx7ymnnGI9e/a0v/71r24/zkUXXWRPPfWULVmyJGE8uPMljCyuE+Tat+eee0a01b43fTcoEIAABEIJoEiF0uA9BCDgOwKK0vTdd99FlUtuYuwHiYomoUpZppQrR3umFF54ypQppiSlY8aMibsf3Wh26tTJKWCKAKg9QnIVZH2KI5R16rrrrnNWur/85S8uMu0ZZ5xhU6dOLd6wlE+485UCKMnDul6l4IYX/Q59//334dV8hgAEAk4ARSrgFwDTh4DfCXz66af2yy+/RIipIBPXXHNNRD0VyRGQZUrKlFzQtPFeASiuvvpq5+5XUo/a+6PQ8yNHjrRJkya5NenevXvWQn6XJJufj4m3clGNHj3aatWq5XJ6SYGNpxBYIh5Kybfp2LGji7YY3oMS9EqhokAAAhDwCKBIeSR4hQAEfEdA7ktz5syJ2OStPCIvvPCCy/viO6HzWCDd3D/22GPOMiVlSlYmJe3V3qlYRa5q2lclhWrs2LGsSSxQUerF+PTTT7f333/f2rVrV6oyhTtfFIgZqDrggAPcvrbwrpXk+J577gmv5jMEIBBgAihSAV58pg4BvxOYN2+edenSxdatW1dMVO3lOf7444vV8SE9BDw3Py+a38qVK11kv/D9Idq7piASX331lVOgunbtSo6XFJZA7n5t27Z1ub3Wr18ftSfc+aJiSXulHtTIqiqrd3jR9U70vnAqfIZAcAmgSAV37Zk5BHxPQDcsW7Zs8b2chSagF4DCc/OTZUrvp02b5qaqUNDNmzc35UjSXihF5JNyS0mNgJSpyy67zFmnFCI9tODOF0oj8+9lKaxdu3bEQF9//bXbP4gyFYGGCggEkgCKVCCXnUlDID8IaG/Utm3bigmrYAjaDF65cuVi9XxIL4FwN7+ff/7Z5SuSC5+sVK1atbKWLVuaotFR0kNA1sALL7zQLr30UhepUnt1FP1Qkf1Itpsexon0UqFChYjmCl/fp0+fjCRWjhiMCghAwPcEyvpeQgSEAAQCSUA3kIr6Fu7WV6dOHcONLDuXhOfmJ2W2W7duLqmugiNcddVVLox3dqQI1ihirqiHGzdudNY+5ZzSNT9o0CCS7Wb5UpAVULm+ZIUKLUcccYQLyBJax3sIQCCYBLBIBXPdmTUEfE9ANy/ffvtthJyylGiTPiU7BDw3PyXt1Xs9kZ81a5bF2seTHakKexQpU4qYeNJJJ7kkxno98MADC3vSPpxd3bp1TSHqw4sShGuPIAUCEIAAihTXAAQgkDcEdtppJ+fWpxtNSvYIaI+UrIPKMyUlVsl6Falv7ty5bLzPwDJ40fk+/vhjx7pq1aqOP8prBmAn0aXy2mlvICV3BPRdWLBgAb8/uVsCRv5/AihSXAoQgIAvCehmMnx/1B//+MeoyTJ9OYECEUpP3hUEQWHRlffIi+anKH7nnHOOLVmypEBm6p9peNH5evfu7QIedOjQwbm4SpnFEpLddTrmmGNMUfxCi9wuo1nLQ9vwPrMEtGewWbNmtnr16swORO8QKIUAilQpgDgMAQhkn8CMGTNcZKzwkRUZjuhw4VQy91nJR8877zwXXMJLfvzII4+4CH5aByUoPfvss0vMM5U56Qqz52jR+SpVqmTXX3+9TZ482eJN2luYdLI/q9atWztLbPjIixcvJjlvOJQsfj7rrLOsXr169uCDD7IOWeTOUJEEUKQimVADAQjkmIASwH755ZcRUmivCFHiIrBkpEIWQbkv/fnPf7Z+/foVJdoNjeYnF0vtl1LS3vA8UxkRqoA79dz5lPS1b9++Vr9+/WKzbdy4sd1777121113oUwVI5P5DzVr1owYZMKECSbXS0puCFSrVs0lRx41apTpwRsFArkigCKVK/KMCwEIJERA+0TkVkbJDgEpSI8++qhz3wu/qZcC9dBDDxW5+Skc+i233IIylcLShLrzhfP2um3Xrp213ZG0V2HRv/jiC6+a1xwQkLX2+eefz8HIDAkBCPiJAIqUn1YDWSAAAbcHRC5j4UWBJvbaa6/waj5ngICikn322Wduf060XDoa0ovmF5q0V8qUrImUxAhEc+eL1oMUWIWe33///e3NN9805fSiZJ7Avvvua3vvvXfEQNorRYEABIJNAEUq2OvP7CHgOwLagzNixAjfyRUUgRQNS+4yPXv2dOvQoEGDmFMPdfNTND9F95NSsGrVqpjncOB3Ap47nzbOR3Pn+73l7+/EWe0///xzl6j39yO8yxSBpk2bWknfg0yNS78QgID/CaBI+X+NkBACgSLw1VdfRY1MphuZWNaRQAHK8GSfeuopGzlypL3//vtWuXLlUkcLd/ObPn26c/kjVHep6EzufFKKevXqFbEnqrSzGzZsaHPmzCFqYmmg0nT8+OOPN1nFQ8tPP/0Ukaw39DjvIQCBwidQ/Feh8OfLDCEAgTwkUKdOHRswYACufRleO4U5X7p0qbvBr169uklJiqeEuvkpmp/c+2666SZbu3ZtPKcHso3nzidLVDLWjk6dOpmUqfbt29uiRYsCyTCbk7700ksjEoHPnz/f8ec6z+ZKMBYE/EUARcpf64E0EAg0gc2bN9umTZsiGOy555623377RdRTkV4CujGUInTkkUcm3HGom5/6GDp0qFOmsEwVR5mMO1/xHv73SYxlPTz44INNoenhHI1S+uqUw+64446L6PDnn3+OakGPaEhF2gmUK1fO7V3bsGFD2vumQwjESwBFKl5StIMABDJOYOzYsfbPf/4z4+MwQCQBueSpKGBEsiXczU973ZSHZ9y4ccl2WXDndevWzd56662490SVBEC8lRLg+++/N24mSyKV+jHl8ooVTTH13ukhGQKHHXaYC7ry3HPPmff7lUw/nAOBVAigSKVCj3MhAIG0EZA1SuGEFVY4vETL4xLehs/JExBzufUpZ1TdunWT72jHmaFufno/evRo69q1q02dOtVkjQlykTuflCjl5UrXTbkSk3bu3NlZp7BKZf/q0u/WvHnzsj8wI7rfGkWw/Prrr8mtxvWQMwIoUjlDz8AQgEAogW3btrn9OaF1ei/3jQ4dOsS9Xyf8fD6XTEDKTf/+/W379u0utHbJreM76rn5Ke+Xosx99NFH1qxZs8BGY0yXO180+lWqVLELL7zQhULXvjSUqWiU0lMnF+Pw8ssvv7gIl0F/SBDOJZufy5Qpk83hGAsCxQigSBXDwQcIQMBvBA488EDTP0pmCMg68thjj9mDDz6YNiuJJJXbmULZS5nafffdXWj0W2+9NZBJez13vmSi88Wz6hUrVrS2OxL1vvfeezZ8+PB4TqFNEgSUM6158+YRZ77zzjs2bdq0iHoqskNAD4EoEMgVgbK5GphxIQABCMRDQGGHa9euHU9T2iRB4I033nBKTyaUVc/NT2LJbVNP77UHS9bHK6+8Mglp8+sUWSm8EOfpdOeLRqFly5Y2d+5ct18q2nHqUicg699ll11mUpxCy5YtW2zr1q2hVbzPIgEsUlmEzVARBLBIRSChAgIQyAWBMWPGmCJgUbJHQLmili1bZr17906rNSp0BuFufkraKyuVxi7k4ilRuumON9luqjy070rJlGfOnJlqV5wPgbwhgEUqb5aqIAVFkSrIZWVSEMg/AkrEG56PRftrjj766PybTB5IrL00d911l2N+6qmnZlRiz81P1ijPzW/gwIFRA4tkVJAsdu65873wwgsZU1LDp9OkSRNTmG5Z/ygQCAIBpQG44IILTLkGKRDIBQEUqVxQZ0wIQCAuAhUqVHCuNHE1plFCBBRpTO5IUm722WefhM5NprFnmdI+EynIspzccMMNEcpzMn376RwvsIQXnS+ZZLvJzkc3lR07drTx48e7SGbJ9sN5iRHQms+ePTuxk2idFgL6LenevbudcsopaemPTiCQKAEUqUSJ0R4CEIBAARAYMGCA1ahRw+65556sRUT0lCm59nlJe2+++eaCiTSXC3e+8EvxjDPOcHsK+/TpE36Iz2kgcOyxx9ohhxxSrCftkdL3aOLEicXq+QABCBQ+ARSpwl9jZggB3xOQm5lc+yjZIaB9SnqS+9RTT2VnwJBRwt38Xn/9dSsUZSoX7nwhaN1bRfBr1aqVTZ48mUhy4XDS8Fl51uRKttNOxW+ftNfwhx9+SMMIdAEBCOQTgeK/BPkkObJCAAIFQ0BPcidNmlQw8/H7RGQRWr16tR133HE5EdWzTMnNT++lTJ144okuaW9OBEpxUFminnnmGZdsV5agbLrzRRNdERFbtGhhr776arTD1KVI4IorrnAPIlLshtMhAIECIIAiVQCLyBQgkO8EFNVs48aNEdNQYAJZMCjpJfDjjz/ab7/9lt5OE+zNU6ak1GmNp0+f7oJfKBx7PhXPnU97onQd51qJ8tgdfPDBLmfX0qVLvSpeIQABCEAgzQTII5VmoHQHAQgkTkB5haKVq6++2qpVqxbtUGDrfv31Vxs2bJitWrUqwr0oXihLliyxTZs2OStKNPaqa9q0acaVAs/NT+Npw7iskgrd/Z///MeUFykfiufOJ0uUwo/7pYS7nvlFrkKQQ8ozBQIQgIAIoEhxHUAAAr4kcOihh1qbNm18KVsuherRo4c98sgjpg3uqZapU6dG7UI34bIMffjhh6Y9N5ksnmVKY4Ym7dWYflamdDMdqkT5xRLlrdVpp51m5513ntsrddZZZ2V8Hb1xg/Cq7+CGDRsipjp//vyIOiogAIHCJoBrX2GvL7ODQN4SUOhzRZWj/E5AbloKG54OJer3XiPfyUK0Zs0aZxmKPJr+Gk+ZkpufgmAoGIbCsr/22mvpHywNPYYqUX5y5wudmiy5HTp0cOHQv/nmm9BDvE+RgHLb6fcpvGhPmq5dCgQgEBwCKFLBWWtmCgEI5DkB3RzXrl0747OoUqWKi+in12wVufl16tTJKVBe0t777rvPFi1alC0R4h5Hlqi///3v1qtXL1+584VPQFY+KX24ooWTSe3zrbfeapdeemlEJ4o++q9//SuingoIQKBwCaBIFe7aMjMIQKDACEjZ2HvvvTM+K+XJufDCCzM+TvgAyi312GOPmZe0V0ExHnzwQd8k7ZVC4qfofOH8wj/Lule1alWLtg8uvC2fEyOw1157RZyg72c0S1VEQyogAIGCIYAiVTBLyUQgAIEgEFAQiEwrU2XKlMkZylA3v3LlyrnQ6H7IM+W588kS5Vd3vvBFO+igg6xnz542aNAgmzBhQvhhPqeZgCypderUSXOvdAcBCPiZAIqUn1cH2SAQAAILFizwpfuWX9GfdNJJBf/U23PzkwtV2bJlfaFMee58fovOV9p1esIJJ9jnn39uX3/9dWlNOQ4BCEAAAgkSIGpfgsBoDgEIpJfAiBEjbMaMGRGdKtCEbqgp2SUgVzApMLlm77n5edH8hg4dalu3brU777zTjjjiiKzJN3fuXHvllVds/Pjx5odku9m9GhgNAhCAAARKIoBFqiQ6HIMABDJKQDmRBgwYEDGG9hnohpkSnYBciDJVmjdvbi1atMhU9wn1G+7mJ4VGIfGVBysbARTWrl1rDzzwgIuU2Lt374zn1UoITgKNtVeKAoFCJqAHHkqKTYFAtgmgSGWbOONBAAJFBHQzvH379qLP3pszzjjDTjzxRO8jryEEKlWqZE8++aQLIhBSnba3sgD5qYS6+UmBnD17tp1yyikmS2Ymi67Nyy+/3JQbaMiQIb6OzlcSBylRTz31lClwx8SJE0tqyjEI5C2BX375xe0FJPx83i5h3grur7+YeYsRwSEAgXQSkEUq165l6ZxPuvu66KKLrG7duunu1rf9eW5+iuan60Ih0TOZZ8oLLLFx40br169f3lqivAVVgBLlktJcKBAoRAJy91VRLjoKBLJJAEUqm7QZCwIQgICPCVSsWNGaNGniSwlD3fy8PFNSpoYPH55WeT0lStH58tmdL61Q6CwuArp2NmzYEFdbGqWXgCyv++23n82bNy+9HdMbBEohgCJVCiAOQwACEAgKgaOPPtoaN27s2+mGu/nJjUeh0dOpTOVrdD7fLlqABFu2bJm7HnEvC9CiM9XAE0CRCvwlAAAIQCAfCey///5pF/uSSy6xaIlG0z5QCh2GuvnpKbT2RvTq1SvlpL2yJijZ7ttvv010vhTWJyintm3bNmLfnBIfK1/XnDlzgoKBeUIg8ARQpAJ/CQAAAhDIRwKynDRs2DAfRU9Z5nA3v8mTJztLwPr165PqG3e+pLAF+qQGDRqY9uxRIACBYBNAkQr2+jN7CEAgTwlUr17djjrqqDyVPnWxQ938ypUr55L2Kv9VMsoU7nypr0cQe5BCT4EABIJNoNSEvAo1u3jxYttnn32ymgQx2MvC7CEAAQhkl0C9evWsWbNm2R00xdE8Nz8vae/gwYNd0t4XXnjBFDijtOJZopR/ptCT7SrBtdwglbuNvFKlXRkchwAEIBAfgagWKf1xWbp0qXXu3NlatmxpyumiDchvvPFGqb0qgaGeCiqJ4X/+859S29MAAhCAAASSI5DOxLx777231axZMzlBcnhWqJufLFPKL6Xw8OPGjStRKiXwvPLKK10Sz759++Z9iPMSJ7vjoPZ/aQ/PPffcU1pTjkMAAhCAQJwEoipSY8aMseOPP95ee+01e/rpp+3SSy91SlHHjh1LjY6k0J+KoCSlC0UqzlWgGQQgAIEkCFx33XWWiaATSYiS01NC3fxkndKG/+eff969RhNs5syZ9uyzz5peFaiifv360ZoVVF2VKlWcV8lnn31melhKgQAEIACB1AlEVaQ8y5MUp9NPP91eeeUVq1WrlnmhZqdMmRJ1ZLkMPPHEE859IGoDKiEAAQhAIG0EKleubGXLluqhXep4suRcffXVpbbzcwPPzU8BAOS6NnbsWGvRooV7IBgud//+/W3SpEn26quvFrwlKnzufIYABCAAgfQRKPYXWJt09ZRO+6JklVJUmvCycuVKU66EaGXq1KkmH3W5D5QpUyZak7jr5CLIU7O4cdEQAhCAQNIE9Fufb/ujok3Wc/PT36Du3bu7h39K2rvnnnvaueee67wkFFji888/dwrWYYcdFq0b6iAAAQhAAAJxEShmkRoyZIg9/vjjThHSxlSvzJgxw6RAlVb0xytdyo/cD8gQXhpxjkMAAkEmICtM3bp1U0YgRUpRAAuhyM3v4Ycfdnt1tYdMnhS9e/e2iRMn2pIlS5w7n4JRBMGdrxDWkzlAAAIQ8DOBYoqU3DsOOOAAu/baa03+1Cr6I9SuXTtbtGiR+3zOOefYySef7N6X9F+1atVMvurJlqZNm7rEkIoYSIEABCAAgUgCcmEbMGAASkEYGimYCpakpKkqcvPTXl9ZosTryCOPdPVB+s8LIhWkOediruK8cOHCXAwd6DG1J3/58uWBZsDkc0OgmGvfVVdd5XzK9UfIK9r39OOPP7qPCoHetWvXIiXLa+O9btq0yb3VU8DbbrvNQvvx2iT6qmAX06dPT2gfwNatW11+lbvuuivR4Wzz5s326KOPupDviSqCssjp6fD9999veiqaSNGPwGOPPWbz589PWAHVuNrD9tBDD1mieS30o681ldUxmfnKNebuu+9OeNyvv/7a9FT4t99+SwSTa6v53njjjXbSSSclfO60adNMrj3JFI2rG7Mzzzwz4dO1qf2pp55y1t5ET9a42ush16REiyKTdenSJSnO+h6df/75buxEx9WTf32P9H0qqWgMhWROV9GDH30PkrVmKzqpIrklWgYNGmQffPBBQr9T3hhShmRBScYipMA+csNevXq1111Sr4lG/9OYGjvR3wwJp3Puu+++pCxpisQ3dOjQuMbVOLNmzSrioWtDEWXVh47p2gtSWbdunf3jH/+wPfbYw/S3Ppm1CxKv0uYqfvPmzYtotmXLFvc38d133404RkVmCGgt5DWl73bVqlWtTZs2mRkoB73qd6pRo0amwEIUfxIopkjpJry0G/FYx3UjrpDn+hH5y1/+Yk2aNEl5xvpyyEL2888/2/bt2+PuTzeeOi+ZonMV+l3KY6J/aHSuNn8nW3RDmey42gOQbBHfZMbVeLq5j3VNlCSP1mfXXXe1OXPmJMxZ/SZ7o6zrUzf5iVxP3jy0vroZSaboIYPGTcb1NZVxpaBrXM070aJxtVcxmaJx9T3auHFjiadrjGSYxOpU4/70009JrZNuMJPdMyNFRuMm+puheWjcZNZH565atcp9d5M9X33st99+dv311+tt3GXNmjVJ/2boIVOy8up6SuS3Skrq2Wef7cb717/+5ZR27ePVnLXWyfwOxA3JRw21Z1kPRfX90I2ZrlVKagTENNYDjNAH0KmNwtnxEtB6nHbaae5hpX4jCqXo+6qHQBQfE9jxhyRm2fFHa/uOP7Dbd9woS4vZ3rp16+07bgijtn/uuedcG7Vr3rx51DaJVO6I/rd9h6vh9mHDhiVyGm0hAIE8IrBDMd1+6KGHFv126PdD/3Y8Mc+jWeRe1B1uaxEMPZalve7wHti+44917ieRQQl23Fht33fffYsY7bBmb9e1F6Siv90XX3zx9h1ujQW/3tla1x37youuKe97pvuWF198MVsiMA4EIJBjAiVuYlLABwWg0FMsufXJx7w0dz25iCTj+rTjR6hYkaua9mzpiTUFAhCAAARiE5AbsxLqJlPq1auXsCtyMuPk+hw9sZbFUNZ7RZi9+eab3Z6KdFpEcz3HksbX3+6DDz64pCYcSwMBWVyPOOKINPREFxCAQD4QKFGR0h8YmRVV9OMQjx/9jqfLdtlll6U897POOssqVqyYcj90AAEIQKDQCRx99NEFEb48k+u046Glc/N788033d8W5ZA69dRTbcGCBZkclr4hAAEIQKCACcRUpKREvfTSS84apfn/6U9/cnuforFQMAj5navIeoUVKRol6iAAAQhkhoAedCVjkapTp45TLjIjlb96lUXqmmuucR4T7du3d3s7FSxAnhavvfaav4RFGghAAAIQyAsCxYJNhEr80Ucf2ccff+yq5A7RsWPHmEEFduyPMkVhU1HABCX2pUAAAhCAgL8JVKpUyQ466CB/C5km6UIDgShCqoqS9iqSp5L26riiY1IgAAEIQAAC8RKIaZFSVKbQ0NTarxSreO3ke67Q37Vr147VlHoIQAACEMgAAe11UpQ6SnQCoZ4SijQanrRXe6YU0r1Qy4QJE1wUzVNOOaVQp8i8IAABCGSdQExF6pJLLrFOnTqVGs5XeWK8EKAKaa0wunIzoUAAAhCAQPYI3HTTTdahQ4fsDZhnI4VapCS6gi/IMqXcUlJA5U0hz4tCdfNTPjmFy5cVjr/ReXbxIi4EIOBbAjEVKUl81FFH2V577eV+dJUXIbxIibr33ntdkj8dC33iF96WzxCAAAQgkFkC2ssab5HykI58f/GOl+t20f4+yTIlZUqufQqmpHwtSiQthYMCAQhAAAIQKI1AiYrUCSec4Fwd5LKnPy7ePih1qqASUqJCA1KEP/ErbXCOQwACEIBAbgg0a9bMuWLnZvTsjxrr71O4m58CUNxxxx3s9c3+EjEiBCAAgbwjUKIipSeWp59+uot0pCd0559/vp144onWsGFDU3jyP/7xj7b//vsXTfryyy/HR7+IBm8gAAEIZJeAIvftsccecQ2qQBNSIoJSolmkvLmHuvmJydChQ12eqbVr13pNeIVAMQIKm78j8W6xOn2QF088qWIiTqQCAhDISwIlKlKakf6oPPnkkzZ+/HinSP35z3+2HZnR7fjjjzfto6pQoYKbeLryR+UlRYSGAAQg4AMCsjLpt5kSSSCWRcprqb91npufgitJmdL+qWhu7d45vAaXQK9evWzy5MkRAC644AJr0KBBRD0VEIBAYRKIGf48dLr6A1O/fn23STW0fsCAATZz5kwXkEI/HnXr1g09zHsIQAACEMgiAf1Wyy1typQpJSoAemKuHFJBKiVZpDwO4qdofioKyqCkvYpKe91111mjRo1cPf9BQAS2bt0aAWLfffd1++0iDlABAQgULIGoFinthWratKnJVW/JkiVRJy9XP5m1N23aZIrWd+ONN0ZtRyUEIAABCGSPgG7mlHy2pHLttdcG7oZPFqnFixeXhMUdC3fzUxQ/pfWYMWOGKVF9vhbNq2rVqvkqfl7Iveuuu1q1atXyQlaEhAAE0kMgQpGaO3eutWnTxsaOHesCTQwePDjqSPrj8t1337ljrVu3DkxSx6gwqIQABNJKwMtNl9ZOA9KZQlvrhq6kouh+QQqBvc8++ziXR+1riUcZCnXzk/Vu6tSpdsYZZ9gbb7xRElZfHlNgKLnny6tEKU0oEIAABCCQPgIRitScOXPs+++/dyMoWt+BBx4YMZp8gx944AGX3O/ss88md0kEISogAIFUCLz//vvWr1+/VLoI7LlHHHGEnXPOOYGdf7SJK3CSriftgYpXgfTc/JSoV3umli1b5gJQ5FvSXilSAwcOdJaSKlWqRMNDHQQgAAEIJEkgQpE6+uijTf+kRD311FN25ZVXFnWtJ3nyG5cPudxHnnvuORs0aJBVr169qA1vIAABCMRLQBGu2rVr535vQs9Zs2aNS60Qj/Ug9Dzem1MUFPyntOAKQWMlJaJixYoJTVvucJ07d45I2ptvylRCk6YxBCAAAQjETSAi2IT+2Ci7u6LRyDJ1ww03FHWmP8zeZmbV649SvE/3ijrhDQQgAIEQAnfffbd9+OGHLjJoSDVvUyCg3+f+/fvbokWLInqpVauWS7YecYCKqAQ8Nz8d1INEJe2VlUqlRYsW7pX/IAABCEAgmAQiFClhkBVK+aNuv/12W7hwYdHGZSlOL7/8stWoUSOYtJg1BCCQdgJ6GFO2bNSforSPFZQO5YoWLeCE9vs888wzdswxxwQFRVrm6bn5KfLfCy+8YL/88kteKFPKg/X2229bvXr1TAo0BQIQgAAE0ksg5t2L3PVef/319I5GbxCAAAQgkHEC8h5Qwl09CAstUq5Ck6iHHuN9yQTk5qegDWLbo0cPp0zJe0PFr5YpRd1VOPyRI0dao0aNnKz8lzoBuRyvXLkyoiMFyRFz9qJFoKECAgVLIGKPVMHOlIlBAAIQCAgB7T0LdcsOyLQzPk1ZT72kvbLuyc3voYcecjfP7OfLOH7fDNClSxcbNWpUhDybN2+22bNnR9RTAQEIFC4BFKnCXdv/a+9O4K2c9j+O/xqIhquSTMmQFCKRDP27DahIuEiuEBUqKdOtcOVeKkNoEK6pEm64hgglXolQupKMJSlRokED0tXw9133Pqd99t7nnH3Onp7hs16vnL2f/eznWeu9dtq/s9b6LVqGAAIRFkiWAl0zDXbdddcIq6TfdG+an9ZJKZjSqN9JJ53kyy/QmoqoEUhGSNLv99graO3hL7/8EnvIPVbGzHbt2iUc5wACCIRXgEAqvH1LyxAItIC+qPz444+BboOfKq8ASinA69ev76dqBbIu3jS/fv36uYRL2jaka9eubu9FvzRICaO0kbASZGgPKUrmBHr16pWQaVRXP//8802jwRQEEIiOAIFUdPqaliLgW4GWLVu6vXpiKzh//ny3R12y3/zGnsfj5AKNGze2evXqFbxYpUoV02/MKZkR8Kb5aZ2UkqVo016NUvll016NmnzwwQfWoEGDzDSYqyCAAAIIJAgQSCWQcAABBHItcNppp5l+yx9bNC1pxowZpsxjlNILNGnSxIYPH27ajFZl27Ztpb8I7yhWQNP8/v73v7sAStP8lM2vd+/evhmZ2nfffQv6v9iG8CICCCCAQJkECKTKxMabEEAgkwL77bef23Ihk9fkWmZ16tQp2Ji3Ro0abh9AXDIrEDvNT0GrgimNUuVz097vvvvObVWibIKl3YQ4szpcDQEEEAi3AIFUuPuX1iEQCAF9AWUKUna7yttEPbt3iebVY6f5edn88jnNb8SIEaapsewXlvnPo7IzTpo0yTZt2pT5i3NFBBAInECR+0gFriVUGAEEEEAgQUBTJLVeqlOnTgmvcSBzAt40P13R27RX0/z0xTuX+0wtWrTIpea+4447rHnz5plrIFdyAq+88ooNGzbMfvvtt0Ii1atXt3322afQMZ4ggED4BQikwt/HtBAB3wtoPx6th6JkVuCAAw6wDh062ObNm0mBnVnapFfzpvnlc9PexYsXmzaGJTtj0i5K++DatWvtp59+KnQdBdGDBw+2k08+udBxniCAQPgFmNoX/j6mhQj4XkD73Bx11FEJ9dQXlsmTJycc50BqAlofM27cOBs7dmxqbwjxWQrU33///ay3sKhpfhMnTsz6vTX6ddddd9kf//hHa9asWdbvxw3+K6BAKtn/v/BBAIHwCxBIhb+PaSECgRA47LDDTCm6Y4sCqQEDBrjU0rHHeZy6gNafRT3hgEY8L7vsMhs9erSbape6XtnO9Kb5eZv2KgHFAw88YNrbKZtl6tSptmDBArvyyiuzeRuujQACCCDwPwECKT4KCCDgC4HzzjvP9t5774S6KAmFpqhRECirgBIDaHNnTb3SiFEuijfNT5v2KpidMmWKC3AWLlyYlWBOa3YUKLZp08atictFG6N4j++//z6KzabNCCBQhACBVBEwHEYAAX8IaEPe+IXd/qgZtQiSgNYt5SqI8lxip/lVqlTJ5s2bZ61atbLnn3/eOyVjP19++WXTJrxdu3YlzX3GVAtfSCObDz30UOGDvz/TZ0t/KAggED0B/uZHr89pMQKBEvjkk0/smWeeCVSdqaz/BJS9MB/Fm+ankamKFSva8uXLM75przL1XX311TZw4EBr0aJFPpoZiXs++OCDpmQesUXp7rW1wOGHHx57mMcIIBARAQKpiHQ0zUTA7wL6ja5SCMcXjUaNHz8+K9Oh4u/F8/AK5HPEIH6aXyY37d2wYYNLKKL1WCeddFJ4O9AHLdO0vvjRcSXK0TpO9TEFAQSiJ0AgFb0+p8UI+FJAX0RGjhxp++67b0L9tm3blnCMAwiURiBfI1JeHeOn+WmaWCY27dW+RvpFQ5cuXax27dre7fiZI4Fy5crl6E7cBgEE/ChAIOXHXqFOCERU4Nhjj7VDDz00oq2n2dkUyOeIlNeu2Gl+mhKmkSlt2vvUU095p5Tq5/z5812WPm24rGmDlOwJaK1m/LQ+3Y1f8mTPnCsjEAQBAqkg9BJ1RCDiAl999ZXLehZxBpqfhkC+R6S8qmdqmt93331n999/v/373/92yStq1qzp3YKfWRC4++67E/4fpGB49913J9FEFry5JAJBESCQCkpPUU8EIiyg1NXaVFa/FaYgUBYBP4xIefXOxDS/Sy+91KV0/+c//5nzbIReO6L0c+PGjQnrNLX3nTYMJ4iN0ieBtiJQWIBAqrAHzxBAIM8CBx54YNIavP322+6LY9IXOYhACQJ+GZHyqplsmp8y+ylLZapF+6tVq1Yt1dM5Lw2BmTNnWvxnSH2oZBMUBBCIrgCBVHT7npYj4EuBwYMHW8eOHX1ZNyqVmsCyZctMU8/8VPw0IuW5xE7z0zSxFStWmEaapk2b5p2S8FO22rz66KOPdunOE07gQMYFpk+fXqoAN+MV4IIIIOBbAQIp33YNFUMgmgL6DbumzMQXZceKTz0cfw7Pyy6wZcuWjPh+9tlndsopp9iNN95Y9spk4Z3xowlZuEWZLulN81MGP41waOTjrrvuclPG4i+o4LRHjx62evVqa926NSm344Gy9HzJkiUuMUj85UnwES/CcwSiJ0AgFb0+p8UI+F5AKdArV65cqJ4//PCD3XvvvYWO8SRzAsOHD7cXXnghrQsqiDr//PPto48+sl9//TWta2X6zX4ckfLaGD/NTynNu3btWiibn4KoXr162Zo1a1ygxca7nl5+fu6zzz523XXX5efm3BUBBHwjQCDlm66gIggg4Anoy/ghhxziPXU/NaIwdepUW7p0aaHjPElfYNy4cfa3v/0t6W/dS3N1BQDz5s0rzVtydq4+P9pQ1a8lfpqfUqNrlMqb5vf666/bBx98YJMmTbJGjRr5tRmhq5d+IZAsPb1GXdu1axe69tIgBBAonQCBVOm8OBsBBHIgoNGoyy+/POFOmtpH5r4ElrQOaIRDgZSmVKb7Bf2yyy6zzp07p1WfbLz5D3/4gx1xxBH28ccfJ2Rey8b9ynrN2Gl+lSpVcoGtpvkpmNI0siOPPNKqVq1a1svzvjIIvPbaazZr1qyEdzKtL4GEAwhEUoBAKpLdTqMR8L+AvjDGT8f6/PPP7S9/+Yuvvwz7X7ZwDV999VX79ttv7eGHH7Z0p4spGDv77LML38AHz1SvMWPG2NChQ32fKjzZND8ll9iwYYPro/gprz7gDXUVNBK4du3aQm3U3lGXXHJJoWM8QQCBaAoQSEWz32k1AoEV8Fs2uMBC/l7xiRMnWt++fa1Vq1bWoUOHjDSladOmblrmunXrMpK8IiOV+v0ie+65Z2D2+/Gm+V1zzTVuraCmJP71r391a88y5cF1ShZQAhZ9juOLRgu1RoqCAAIIEEjxGUAAAV8K1K9f35R0Ir5orQvZ++JVSv9cXxIVSGmj0WOPPbbEC2hE5OWXXy7Rvm7duqb9jd544w2bPXt2idflhEQBJVa55ZZbbPPmzdalSxc35VJrporK5pd4BY5kQmDUqFH27LPPJlxKGUQpCCCAgAQIpPgcIICALwUaN27ssvTFrwn54osv7LbbbivxC70vG+WjSmk9zgknnOBGac4444wSa6apf0oC8swzzxR77qpVq9weUsccc4w1adKk2HN5MVFAI6768v7SSy/ZwoUL3XRE7S2lfaaSZfNLvAJHMiWgLJY//fRTwuUuuOCCwIxuJlSeAwggkFEBAqmMcnIxBBDIpMD+++/vFtnHXvPnn3+2Bx54wPRbe0puBPTl/tFHH3VrRRQoFVfeeustmzt3rh188MEJKeyLex+vmZtGpkD1kUcesSlTprhscbVq1bLevXu7DH4KpjQyNWzYMFu0aBFrBfPwoVEfxGcUzUM1uCUCCPhEgEDKJx1BNRBAIFFAXyIbNmyY8MK2bdsYkUpQyd4BbQCrTUlV4hOAuIMx/3nzzTdt1113tT59+sQc5WFxAt5myIMHD7YXX3zRjTzVqFGjIDGGRg/1mtKha32O9unq2LGjrVixorjL8loaAkrjn2yrBWV/PP3009O4Mm9FAIEwCRBIhak3aQsCIRNQIHXxxRcnjGzot/Jszpt+Z2uapNacpVL0ZV+jTMVNA9SGvN6aEmXKo6QmoM2QlaRDAeidd95ptWvXLgiivCvEZvNT6u2vvvrKTjrppKR7HHnv4WfZBLQeUNMpFy9eXOgCGo3q169fwv+PCp3EEwQQiJQAgVSkupvGIhA8gb333tutD4mtub78P//88zZ//vzYwzwuhYD2jhoxYoS1b9/edtlllyLfqQ1JH3roITcCeOGFF5r6I1nRVMuuXbvasmXLrG3bti4oSHYex7YLKGnKHXfc4fpBqeevvPJK09rAooqXzU8jUxoZ1HYAelzSurWirsfx5ALagPfTTz9NeFFJWRS8UhBAAAFPgEDKk+AnAgj4UkCbkGqaU3zRb4sfe+wx1onEw6T4XJvTaiF9s2bNTKMdRRUlOFAgpS/uzZs3L+o0+9e//uW+fGoU8aKLLjJ96acULfDJJ5/YoEGD3JRJBUIaiUrFTNP8/v73v7sNq71NezWNkmCqaOvSvKI1gOPHjzetxYwvWhtVs2bN+MM8RwCBCAsQSEW482k6AkEQ0P4/l112WUJVNSo1cuRIe/LJJxNe40DJApoyuccee9g//vGPpHvl6Aqaqqe1OUqRrlTcCxYsSHrhBx980O1zpPM0stK6deuk53HwvwklJk+e7AIfrXW6/fbbXfr5VIIoz0/nKj26pplpupn2mVJCCo2kUNIT0JTJDz74IOEiClqV2p+CAAIIxApUjH3CYwQQQMCPAuecc47LGqff4scW/daYDXpjRVJ/rPVOZ511lo0dO9buv/9+O/fccwsSeGj0SevQevbsaVp0r6JpaNdff7374q6RKT3XSJaCguuuu84FY23atHFr1zRqQikssGbNGvvxxx9NUyo1wnf88ce7xBJltVIwNXToUHeTe+65x/WXpvnpemeffXbhm/MsZQH1kZLZxJfdd9/dunXrFn+Y5wggEHEBAqmIfwBoPgJBENBvgjt37uz21dm0aVOhKqeaLKHQm3jivnArIFLSDo1uaGpZbFFyibVr17pRq5YtW9qHH37oRqQUXOm3817RGioFtAqiNCVKI4iU7QIKOLV+rEePHvb+++/b3/72N5ceXkFoWYMo7+p6v6b56e+AF0x52RIJpjyl1H/qM691g7/88kvCm7R2LX5Pu4STOIAAApETYGpf5LqcBiMQTAF9MdQ0pviiPXfeeeed+MM8T0FAC+eVyllfHJXiPPaPF0RptOq+++4zrX1S0bqq2PNig6iiElGkUJVQnrJu3To75ZRTXJB50EEH2YQJE6xTp04u2PQ802040/zSFdz+fq0HfPfdd7cfiHmkbJWlmX4Z81YeIoBAiAUYkQpx59I0BMIkoN/gV6lSxY2SxLZLKbz1Zb+4RAix5/N4u4C+zI8ZM8aNlrzwwgtuZEMjSyeffLJbE6WU3CeeeKJ7w6233uoCVqU318iKRqXOPPNMO/roo01TLwmi/uuqKXwKNLX2TGuX9LmUkzIaVq5ceTt+Bh8VNc1P6dS9/svg7UJ5KY2sqs/Wr1+f0D6NRmkqJgUBBBCIFyCQihfhOQII+FKgXr16bnrf3XffnVA/pUHX5pksBk+gKfGAspDpC+Ree+1l//nPf+ymm25KGhQpiYT+6DfzWpujwElrpoKyX5SCPwUyyryWyaLpYN70Uk3hu+CCC2z58uWmjVvlpamQ6U7hS6W+yab5KRmLCsFUyYIalY1fg6l36TOjaa/JNgYv+aqcgQACYRcgkAp7D9M+BEIkcMkll7hsZwqaYsucOXNcOuiJEyfm5Etr7L3D8FgbwI4ePTqlpugLpdZCZaMo9fR7771nderUcSNe9evXz0h/6rrdu3e3Jk2amKaCZiKwWbRokds497XXXnPBpwKqcuXKuUQFGtXTdMhcF2+an5KFaM3USy+9ZBppqV69utvwN9f1CdL9lK0vfv2l6q9RW30eKQgggEAyAQKpZCocQwABXwroS7ymkcUnRlBlZ86caVOnTnXT0nxZeSpVooDSgSupiDYI1tTBgQMHug2DlbBBX2iL2zi4uIvrC7JGi9q1a1emIGrDhg3u/bqHgrBvvvnGjTRp6pzqplE6TT3dbbfd3BS+2GQcxdUrG6/FT/N7/fXXXeZFBXYkoChaXL9I0FTM+KJsloxGxavwHAEEPAECKU+CnwggEAiB888/355++mk3lS+2wlqXok1mtb6HEkwBTYX761//arNmzXIbAE+bNs2GDBliCmTat2/vRs2STSVUEFNS0ShNKucpMIotGtH5y1/+Ys8991xBWmzV4fDDD3enaY8zv33mkk3zI5tfbK8Wfqxpny+++GLhg78/02fummuuSTjOAQQQQMATIJDyJPiJAAKBENDC744dO7q03fEV1pQ/TbHKxNSt+GvzPPsCCnQ0CuUVBTFvvPGGTZo0ySUZ0YL/2L7Vfj9aw3LHHXe4zHje+5L91DqmL7/8MtlLBcf0+bn88stdmn3vPvo8KWh67LHHbMqUKXbooYdagwYNXPIB75yCC/joQfw0P2/TXrVHo36U7QJad6n9o+KLnDTtlYIAAggUJVDu93+IEneeK+rsHB7XnPYjjzzS/TZSi3cpCCCAgCewcOFCa9WqlVvU7x3TT03/0hfvRo0axR7mccAF9OVfdKgszgAAOHBJREFUqcSVYTB+jx+NNGk0UmuW9DhZ0SjT9OnT3XRBZdErKgDS9D+lKT/wwAMLEkjsuOOObiNWfaFWPVSKen+ye+f7mOqspCBaM7Vx40Y3/ZBpftt7RZ+n1q1b2+zZs7cf/N8jbVZ90UUXJRznAAIIIOAJMCLlSfATAQQCI6AkBNpEVtNutN+RV/QLmFGjRtmDDz7oHeJnCAQUuCi74LXXXpu0NZMnT3bJHbzsebEnKbj69NNPXQDmrV1Kdp5+p3jCCSfYDTfcUOR+QUEKoDwD1ZlNez2N//787LPPTIlpKlas6DL1zZs3r/AJvz9TFkv9f4aCAAIIFCdAIFWcDq8hgIBvBc477zyXdCI2kFJlNTKhNTXJ1tL4tjFULC0BrVEqbp2SRqO0l1P//v0LTR1M66YBenPUp/lpe4TFixe7HtP00ZdfftlGjBhRZA9q429N92NvuiKJeAEBBP4nQCDFRwEBBEIloAQFGqliVCpU3ZpWYzSyoC/HmrIX1aJgavDgwa75mua3cuVKu+KKK9w0xbBm89O0PWWCVOp7BVPeiKI3RbOoz4KyPL777rt2+umnFzk6WdR7OY4AAtESSD6hPFoGtBYBBAIooN8sa9PTZOWVV15JuuYh2bkci4ZAsul80Wj59lbq74ym+SmhhqY5KpjSKN2yZcu2nxSCRwqUNArZo0cPN1KpqXzqf62V05+SPgt6/YEHHrABAwa480NAQhMQQCBLAgRSWYLlsgggkF0B/XZZe78cd9xxCTfSF8MLL7zQpdFOeJEDkRQoKhFF1DC8aX79+vVzo3TLly+3Dh06mFKAh6F89913Lithp06dbMKECYXWUJamfRqVUjCldXnxCU5Kcx3ORQCBcAsQSIW7f2kdAqEWUAKC/fbbL2kbFyxY4BJPJH2Rg5ETKGkUIkog3jQ/Te1TgKn91zQypb2yglwURF30e5a9Z5991pR4Jt2iYOr++++36667zpSKn4IAAgjEC7BGKl6E5wggECgBTVVSOvRkv1H/4osv3LSlvffeO1BtorKZF2BEqrCpN81PAabWTGnbAE2BU1FijqAVpa5XEDV16tSMVl1TATUypc+P9iuTGwUBBBDwBBiR8iT4iQACgRRQIgFtllq3bt2E+s+ZM8d69epVsP9PwgkciIwAI1KJXR0/zU+b9vbs2dOeeeaZxJN9fEQjUdpvMtNBlNdkb2SKaX6eCD8RQMATIJDyJPiJAAKBFWjYsKEpHboys8UXpUP/6aef4g/zPIIC8anyI0iQ0OTYaX76+6MEFL179w5MMOVN58tWEOWBecHUTTfd5B3iJwIIIGAEUnwIEEAgFAI333xz0n1fNO3vqquuYsF4KHq5bI2oWrWqHXzwwS75SEmpr8t2h2C/y5vmF5vNr0+fPr5fM+VN53v99ddz0gGa5vfee+/l5F7cBAEEgiFAIBWMfqKWCCBQgoC+DDZo0CDhLH35eemll0xfuijRFNhll11s3LhxNnTo0IK9hKIpUXSrgzbNL3Y6Xy6nbWpfqnvvvbdoSF5BAIFICRBIRaq7aSwC4RYYMmSInXrqqQmN1NS+xx9/nD1hEmSic0Br6GrXrh2dBpehpUGZ5qcgqlu3bllbE1Uc3bp162zYsGG2Zs2a4k7jNQQQiIgAgVREOppmIhAFAY08HHPMMQlN3bhxo91+++3uC1DCixxAAIECAb9P8/Om802ZMqWgzrl+sG3btlzfkvshgIBPBQikfNoxVAsBBMom0LlzZ2vWrFnCmzUqpaldyvBHQQCBogWSTfPT5tfz5s3LawbM2Ol8RdeeVxBAAIHcCRBI5c6aOyGAQA4ElA5d0/gaNWqUcLeff/7Z5s+fn3CcAwggUFggfpqf9pnq2rWrrVixIi/BVK6y8xVW4BkCCCBQvACBVPE+vIoAAgEUUDDVqVOnpJtnPvLII4FJ7RxAeqocIoH4aX76JUTz5s3t+eefz2krvel8ucrOl9PGcTMEEAi0AIFUoLuPyiOAQFEC3bt3t/333z/hZW06et9999mGDRsSXuMAAggUFvCm+V1xxRVWvnx5+/rrr3O6z5RGojQSpn2icpmdr7ACzxBAAIHkAgRSyV04igACARfYe++97eKLL07aijfffNP69evH3lJJdTiIQGEBBVNaX6h9pmI37X3uuecKn5jhZ950vnwmlshwk7gcAgiETIBAKmQdSnMQQGC7gFIkH3TQQdsP/O+RfrOtdVR9+/YlmErQ4QACiQKa5nfLLbe4YKpSpUq2cuVKNzKVrWBK0/nyleI8sfUcQQABBJILEEgld+EoAgiEQED7Bl1zzTVWvXr1hNZoo96JEyeafutNQQCBkgVip/lpZErTZHv27JnxNYfedD5GokruE85AAIH8ClTM7+25OwIIIJBdgUsvvdRlGbv22msTRp9++eUXe+qpp2zAgAFWoUKFYiuiDTg3bdpU7Dl6sWrVqlatWrUSz+MEBIIooGDqtttuc1W/9957C0amtH7qzDPPTLtJ3nQ+rYnya5EBBQEEEJAAgRSfAwQQCL1A27ZtrXLlygmBlDbqvfXWW90i+oEDByY4bNmyxQVY2j9H662WL19ebMCl83UvfcFUMOW9P+HCHEAgwAL6pYOm+ancc889BcGUnqcTTAVlOp8S2dSsWVPNpSCAQMQFCKQi/gGg+QhEQWDPPfe0Bx54wK6++mqXdSy2zdqod/DgwabkFBdccIF7SQHQ8OHD3WhVxYoV3fQ/ZStLpTz55JNu41L91lprSYYMGWItWrRI5a2cg0BgBPT5VgIKFf3iQNP8evfubXXq1Em6IXZJDdNIlNZE+X063yGHHGJdunQpqTm8jgACERGo8Lffix/bqik3+uJzwgknWOPGjf1YReqEAAIBEdBC+YMPPtgFRO+//37ChqJaL9WgQQM7+uij7cMPPzSNTj388MO2ePFi+/bbb23dunUpt1SJLPSlctmyZbZ06VKbPn266TftDRs2tCpVqrjRr5QvxokI+FhAI1OtW7d2WwnMnTvX1q5da0uWLLG99trLDjjggJRrrr8fSnH+6quvpvyefJyo/48oQU2HDh3ycXvuiQACPhQot+334sN62apVq+zII490v831fkvsx3pSJwQQCI7Ar7/+an/605+S/tZbCSkU6GgdlP7/k8mikak99tjD/cb9wgsvtP322y+Tl+daKQh89tlnboSwXr16KZzNKaUR0N+rG264wY1M6e/Pqaee6pK8tGrVqsTLeEGU30ei1BD9skX15O9vid3KCQhERoCsfZHpahqKAAKajqQsfnXr1k3A0G/TNYqU6SBKN9KXS00NvOmmm+z88893v7VPqAAHsiagRCEKYLWuR9M2KZkV0N8rJaDQpr3K5vfSSy/ZOeecU2I2vyBl59OI9vjx4wmiMvvR4WoIBF6AQCrwXUgDEECgNAInnniijR07NmkwVZrrlPXcd955x8477zyCqbICluF9SiqiIFlTxUvKzliGy/OW3wU07c3btNfbZ6pPnz5W1D5TXmKJIIxEaS86BVHNmjWjrxFAAIFCAgRShTh4ggACURBo06aNSzChL3/5KDNnznQjU1pDRcmNgNJza7SEkj0B/X2K3bTXS0ARH0wFaTqfgqhHH33UmjZtmj04rowAAoEVIJAKbNdRcQQQSEdAmfTq16+fziXSei8jU2nxlfrNSgJCyb5A/DS/+E17gzSdT2uinnjiCTv22GOzD8cdEEAgkAKkPw9kt1FpBBBIR0BZQbWmY9GiRelcJu33esHUP//5T9ZepK1Z/AU0IkXJjYA3zU938/aZ0vopbbKrpB/63Pu9aCTq8ccfZyTK7x1F/RDIswD/suS5A7g9AgjkXkBrpMaMGeOSQOT+7oXvqGl+yTYDLnwWz9IVYEQqXcHSvT92mp+mVK5YscIeeuihwARRTOcrXX9zNgJRFSCQimrP024EIiqg9Rn6Qqe9o/xSlNGvNHtV+aXeQaoHI1K57y1N89NWlUryEZTCdL6g9BT1RMAfAgRS/ugHaoEAAjkSmDBhgn3xxRc5ultqt5k9e7b169fPV8FdajUPzlmMSOWnrzQS9cEHH+Tn5qW8K9P5SgnG6QggYARSfAgQQCAyAhqN0nokpcP2U9GX/Lffftu0sSklOwKMSGXHtbir6u9b3759bfny5cWd5ovXyM7ni26gEggEToBAKnBdRoURQKCsAkoysWHDhrK+PavvUzYzLW6nZEeAEansuCa7qjY9HjlypLVu3dqCsE8U0/mS9SLHEEAgFQGy9qWixDkIIBAKgQ8//NC0HsmPRUHeV1995ceqhaJOjEjlphsVRI0aNcqtjVq/fn1ubprGXZjOlwYeb0UAAab28RlAAIFoCCi5xIgRI0wBCyV6AoxI5abPR48eHaggiux8uflccBcEwirA1L6w9iztQgCBBIHVq1cnHPPTgUmTJtmSJUv8VKXQ1IURqex2pUaihg8fboMGDbIgjEQxnS+7nweujkBUBAikotLTtBMBBHwvoKl9rJPKTjcxIpUdV12V6XzZs+XKCCDgbwECKX/3D7VDAIEICWj64ZtvvhmhFuemqdoQtkWLFlanTp3c3DBid3n33Xft5ptvDsRIFNn5IvbhpLkIZFmAZBNZBubyCCCAAAL5FahZs6Y9/fTT+a1ESO+ubJNDhw61tWvX+r6Fms6nEd+mTZv6vq5UEAEEgiHAiFQw+olaIoAAAggg4CsB7RPVrVu3QKQ410jU+PHjCaJ89QmiMggEX4BAKvh9SAsQQAABBBDIqYCCqK5duwYmiFJ2vmbNmuXUiJshgED4BQikwt/HtBABBBBAAIGMCPz66682d+5cu/jiiwMRRJGdLyPdzkUQQKAIAdZIFQHDYQQQQCAfAjvuuGM+bss9EShRQNn5FixYYKeeeqqtWLGixPPzfQLT+fLdA9wfgfALMCIV/j6mhQggEBCBKlWqWJ8+fQJSW6oZNQFtttuxY0dbuXKl+T2dvJedj+l8UfuU0l4EcivAiFRuvbkbAgggUKRAmzZtrGXLlkW+zgsI5ENAI1EKooK02S7Z+fLxSeGeCERPgBGp6PU5LUYgkgI77LCD74MUreeoXLlyJPuHRvtTIGhBFNP5/Pk5olYIhFWAQCqsPUu7EEAgQeDkk082BVQUBBBITSBII1FM50utTzkLAQQyJ0AglTlLroQAAj4XOProo61Jkya+rGX58uWtRo0avqwblYqmwLJly+yee+6x9evX+x6A7Hy+7yIqiEAoBQikQtmtNAoBBJIJ1K5d2+rVq5fspbwf+/Of/2xXXHFF3utBBRCQgPaJ6tGjhy1atMj3IEzn830XUUEEQitAIBXarqVhCCCQTODyyy+36tWrJ3spr8c6dOhg1apVy2sduDkCEmCzXT4HCCCAQGoCBFKpOXEWAgiEROCoo44yBS1+Ko0aNbLmzZv7qUrUJaICQQqimM4X0Q8pzUbARwIEUj7qDKqCAALZF9hpp53soosusj322CP7N0vxDnvttZfVrVs3xbM5DYHsCEyYMMHOPvtsmzJlSnZukMGrMp0vg5hcCgEEyixAIFVmOt6IAAJBFTjxxBPtlltuMSV48EP5/vvvTQv7KdkR+PXXX23ixIkYF8GrFOevvvqq3XXXXTZjxowizvLPYbLz+acvqAkCURfwx7eIqPcC7UcAgZwLnHbaaaaAyg9l3rx51r59exs+fLj99ttvfqhSqOqwevVq69Wrl82cOTNU7cpEY7x9os455xybM2dOJi6Z1WswnS+rvFwcAQRKKUAgVUowTkcAgXAIKIPfuHHjrG3btr5o0CeffGKDBg1yowK//PKLaRSFkjkBv4w+Zq5FmbnSV199ZUOGDAlEivMDDzzQxo8fb02bNs1M47kKAgggkKYAgVSagLwdAQSCK7Dnnnv6Kpj66aef7NZbbzUln+jbt68poKJkRmDr1q2ZuVDIrqLR0E2bNvm+VZrO99hjj1mzZs18X1cqiAAC0REgkIpOX9NSBBBIIuAFU8OGDbO99947yRmZO1S1alW78sorbcSIEbbvvvsmvbA2P128eLE98sgjLpjasGFD0vM4WDoBRqQSvWbPnm39+vXz/WgU0/kS+44jCCDgD4GK/qgGtUAAAQTyJ6Bg6tprrzV9YevZs6etWLHCMjmCscMOO9jhhx9uXbt2ddfX80MPPdS6detm33zzTdKG6/6axrRmzRp37iWXXEJmv6RSqR3MZH+mdkf/n6WAXZ91Pxem8/m5d6gbAggwIsVnAAEEEPifwCmnnGKvvfaa9enTp8gRo9JgVapUyZo0aWKjR4+2SZMm2RVXXGEKolSU6OKhhx6yffbZp8hLKvHE888/b0OHDrWLL76YrHNFSpX8AiNShY20Jk/TSP0cYDKdr3Cf8QwBBPwnQCDlvz6hRgggkCeBChUq2CGHHGIjR460V155xfr37+8CHU3523nnnVOqVfXq1U37QjVu3NhGjRplb7zxhl166aWmUa/40q5dOxszZowbCdttt93iXy54ri+706ZNswsvvNC0poVEFAU0KT/wc8CQciMyeOJTTz3lPksZvGRGL8V0voxycjEEEMiSAFP7sgTLZRFAINgCCqgGDx5s11xzjSlFtEaPlixZUuzeU/qyruDohBNOcOftsssupuCsuNK6dWt799133RQ/jTrNnTu3yNOnT59urVq1sgEDBri1VtpcmJKaACNShZ02b95c+ICPnjGdz0edQVUQQKBYAQKpYnl4EQEEoiygaXhKk66i1OTZKAq0atas6f48/vjjLnCbNWuWrV27NuF2CtR0XOmqX3jhBTcF8dRTTzUFbJTiBRiR2u6jXwhoRMqPhc12/dgr1AkBBIoSYGpfUTIcRwABBHIsoFGwyZMnuzVRmiJYVFGadAVb3bt3t5NPPtlN+Vu6dGlRp3P8dwFGpLZ/DJTgRJsU+60wnc9vPUJ9EECgJAFGpEoS4nUEEEAgxwJaU6U1WZrKp7VRRWX20/4/M2fOdH80ytC8eXM766yz2LA0SX8xIrUdRWsAlWbfT4XpfH7qDeqCAAKpCjAilaoU5yGAAAI5EtB0v4suusjGjRtnDzzwgAuQ6tWrV+zdZ8yYYbfddptLsT5hwgRbt25dsedH7UVGpLb3uN824CU73/a+4RECCARLgEAqWP1FbRFAIGICmrr39ttvuyl/Rx11VImt/+yzz1wwpfc98cQTbh+qEt8UgRMYkfpvJ//yyy/2888/+6bHmc7nm66gIgggUAYBAqkyoPEWBBBAINcC9evXNyWj0L5U2p+quBEW7T+lKX+aItipUyfT+qmop0wvzivXfZmP+6n/N2zYYNddd53LEpmPOsTfU9P5NOratGnT+Jd4jgACCARCgEAqEN1EJRFAAAGzhg0b2nPPPWdTpkyxjh07lkii0Qets2rRooW1bNnSZs+eXeJ7wniCAs8jjjjCdt999zA2r8Q2/fDDD3b++ee7IPzhhx82P0zt86bzHXvssSXWnxMQQAABvwqQbMKvPUO9EEAAgSQC++23n+lPo0aNXHDk7W+1cePGJGebaUqbRqT057zzznOb/2pj386dOyc9P4wHa9WqZS+++GKJe3qFre3avPmWW24xJSKZM2eOb5qnIErTThmJ8k2XUBEEECijAIFUGeF4GwIIIJBPAQUHffv2tQsuuMA0yqAvpgsWLHCbBxe1HmjRokWmPx988IEbnTr00EPdeqqSNg3OZzszde8otFHT99T3mto5fvx4e/DBB+2TTz7JFGFGrqPpfI8++ihBVEY0uQgCCORbgEAq3z3A/RFAAIEyCig4UEA1cOBAO/fcc93Iw6hRo+z5558v9oorVqywu+++26pWreoCq+OPP96OO+44tylwsW/kRd8KKGDq2bOnrVq1yrZt22bffvutaWqnn4q32S7T+fzUK9QFAQTSESCQSkeP9yKAAAI+EYid8nfSSSfZ3LlzXUC1Zs0aN0qRrJra2Hfo0KG2ww47WLNmzWyXXXZx0wWvuuoqdyzZezjmDwGNPilQUlIRpcj/4osv3IhkKrXTZs877bSTO1UJKHKRxc9bE6XPGQUBBBAIiwCBVFh6knYggAACvwtohKpXr14uS59+avPVl156yVavXl2kj6aCvfPOO+71t956y7788kvba6+9XGbALl26uDVZUZgaVySQD17YsmWLSxKh7IPqn/vuu8/mz5/vRhS1/i2VooB51113tXvvvdf+7//+z71F/fv666+n8vYyn+NN5yOIKjMhb0QAAZ8KEEj5tGOoFgIIIJCOgEYclCr9kUcecYkGtFlvSVP+dD+NUimBhYq+tOv9l112mQ0YMCByyRocgk/+M3r0aLv//vtdH2gU6ZtvvilVzQ4//HAbPHiw1alTx30uvDcfcsghWQ2kmM7nSfMTAQTCKFDu97nU2/zYMM3zPvLII23IkCFuMbUf60idEEAAgaAI6P+p//rXv9yUPyWmKM36Ga2l0jqqHXfc0WrUqGE333yzG6UKStuDWs9Jkya5hBFKIKERw3Xr1qXcFKV8P+ecc0ybOGvEsX379i7TY/wFFJRp5PLpp59258W/ns5zpvOlo8d7EUAgCAKMSAWhl6gjAgggkKZA7JQ/raf66KOPrGLFijZjxgyXGr24y2uUaurUqQWnfPXVV9a2bVu39kqjVkqnrmtS0hNQcKsRQO37tHnzZnvsscds2bJlpbqo+kNT6f785z9b//79rXLlysW+v1q1am6qn4K1CRMmFHtuaV5kOl9ptDgXAQSCKkAgFdSeo94IIIBAGQQ05e/6668veKfWx9xwww326aefppx0QKMj3poqXWjatGl25ZVXusBKm94qKxtrqgqIi3ygEaa3337bjQTJSyNQSlte2g1zd955Z6tfv74zP/vss90eYfXq1SvyvvEvKMmIpg3qs6H9phQoK3gua2E6X1nleB8CCARNgKl9Qesx6osAAghkWEAZ4J588kmX/U37TGkq2Nq1a0t1F42EaFRDI19Kra6pgHquBAd777135LMAKlmE1jXJVkVew4YNszFjxri9v3RMXqUpmnKpIEpT+O68884C47IGsaqjijbxVUKK4jI+xtdT7VEiC9Wle/fuhdZhxZ/LcwQQQCAsAgRSYelJ2oEAAgikKaB1VBoN0Z5ESjChL/4KhPTlvzRf8vUFX+9T0Rf9O+64w33B1vPZs2db7dq17YADDgjtqJUXNC1ZssSaN2+uZtuUKVOsT58+tn79eitXrpw7pql8pR19UsCiQElT9m666Sa3f5hGlEqawudumOJ/FFhrc+d77rnHXnzxRRdUqz81Xe/zzz8vCAaVhU9tVdbA0047zY1K6hwvtXqKt+M0BBBAILACBFKB7ToqjgACCGRPYN68eaaNe/WlXdPNtKZK0700YlXaopEKTflTEKBgTUkrzjvvPJeCOzZA05fyI444IlDrrWbNmlXgJBe1UdPjZCYvtV1l5cqV7o97Usr/yE7p6OXTqlUrO/30003JJBTIeAFrKS+Z0um6n9ry448/uvso+FXmv/fee8/2339/UyZBFX1OlNSirCNhKVWGkxBAAAEfChBI+bBTqBICCCDgJwF9oVbRCMsFF1xgCxcudKMq2si1NNn/YtukgCNZOeaYY9y0sj/84Q9FjoIpeMjFdEElekjWPtVdQZL26HrllVfs+++/dwFUbHtiA8TY46k81giTgk0l1dVj3adDhw5uJEj3zmfAos+C2pbveqTiyDkIIIBAtgVINpFtYa6PAAIIBFzA++KuBAaa6qXgQsc0IqEv+fqyrxGSr7/+OuWWFhVoaLSjTZs2RQYLep+msSkr3aWXXupGr7xAL+Wbl3CiptuNGzfOHn74YZc1L1nQp3ooWYTXDu9nCZcu8mWlld9zzz3dyFPfvn3d9h9ql4JGTYVUyeboU5EVi3tB/e59HuJe4ikCCCAQOQFGpCLX5TQYAQQQyIyAAipNbdPokYKbRx991K0F0hogjaZoGqBGrbJV9t13X1P6bhUFMgp4MvFTAYzW/WzcuDErVVc9lWVPa4nk1KBBA+vXr58LmBQ0KTClIIAAAgj4X4BAyv99RA0RQACBQAh4075UWQULgwYNchvKeskVdFyjPUq4EJWiZBtKvuEVBXrKaKjRLq2f8gI/Rnk8IX4igAACwRFgal9w+oqaIoAAAr4WiJ/2deONN7rsf16l9fr06dNdmnVl71MQEVu81OCxx4LyONm0O214fMkll9g111xT0Ay1WdP4vFEnAqgCGh4ggAACgRMgkApcl1FhBBBAIBgCmrpWt27dQpXt0qWLtWvXzmWDi31BAcatt95qM2bMiD0ciMdqo7LZeWuZVGm1R8GVkmd40w8D0RgqiQACCCCQsgCBVMpUnIgAAgggkAkBbdqrYCq+HHTQQfbss88mjFR55yk40TqsL774wjuU1Z9K8d2tWzfTyFJRRXVq0aKF+1PUORxHAAEEEAinQNH/OoSzvbQKAQQQQMCnAsoK2L9//2Jr17JlS7dRrAKYVIuSRkybNs1lFmz1+z5MxQVGsddUVsATTzwx9hCPEUAAAQQQKBAgkCqg4AECCCCAgN8FmjdvbvpTmqL9oJo2beoy4w0cOLA0b+VcBBBAAAEEihRIviNikafzAgIIIIAAAsEUOPDAA4NZcWqNAAIIIOBLAQIpX3YLlUIAAQQQyKRAsk11M3l9roUAAgggED0BAqno9TktRgABBCInUJo1VZHDocEIIIAAAmUSIJAqExtvQgABBBAIkgAjUkHqLeqKAAIIBEOAQCoY/UQtEUAAAQTSEGBEKg083ooAAgggkFSAQCopCwcRQAABBMIkwIhUmHqTtiCAAAL+ECCQ8kc/UAsEEEAAgSwKMCKVRVwujQACCERUgEAqoh1PsxFAAIEoCVSoUCFKzaWtCCCAAAI5ECCQygEyt0AAAQQQyJ/AHnvsYb1797aaNWvmrxLcGQEEEEAgdAIVQ9ciGoQAAggggECMgEajBgwYEHOEhwgggAACCKQvQCCVviFXQAABBBDwuQBT+3zeQVQPAQQQCKAAU/sC2GlUGQEEEEAAAQQQQAABBPIrQCCVX3/ujgACCCCAAAIIIIAAAgEUIJAKYKdRZQQQQAABBBBAAAEEEMivAIFUfv25OwIIIIAAAggggAACCARQgEAqgJ1GlRFAAAEEEEAAAQQQQCC/AgRS+fXn7ggggAACCCCAAAIIIBBAAQKpAHYaVUYAAQQQQAABBBBAAIH8ChBI5defuyOAAAIIIIAAAggggEAABQikAthpVBkBBBBAAAEEEEAAAQTyK0AglV9/7o4AAggggAACCCCAAAIBFCCQCmCnUWUEEEAAAQQQQAABBBDIrwCBVH79uTsCCCCAQA4EtmzZkoO7cAsEEEAAgSgJEEhFqbdpKwIIIBBBgVWrVtkZZ5xhM2bMiGDraTICCCCAQLYECKSyJct1EUAAAQR8IbBp0yZ7//337fvvv/dFfagEAggggEA4BAikwtGPtAIBBBBAoBiB8uX5564YHl5CAAEEECiDAP+ylAGNtyCAAAIIBEtg69atwaowtUUAAQQQ8L0AgZTvu4gKIoAAAgikK8CIVLqCvB8BBBBAIF6AQCpehOcIIIAAAqETYEQqdF1KgxBAAIG8CxBI5b0LqAACCCCAQLYFGJHKtjDXRwABBKInQCAVvT6nxQgggEDkBBiRilyX02AEEEAg6wIEUlkn5gYIIIAAAvkWYEQq3z3A/RFAAIHwCRBIha9PaRECCCCAQJwAI1JxIDxFAAEEEEhbgEAqbUIugAACCCDgdwFGpPzeQ9QPAQQQCJ4AgVTw+owaI4AAAgiUUoARqVKCcToCCCCAQIkCBFIlEnECAggggEDQBRiRCnoPUn8EEEDAfwIEUv7rE2qEAAIIIJBhAUakMgzK5RBAAAEEjECKDwECCCCAQOgFGJEKfRfTQAQQQCDnAhVzfkduiAACCCCAQA4Fdt11V7vnnnvsmGOOyeFduRUCCCCAQNgFCKTC3sO0DwEEEIi4wE477WRnnnlmxBVoPgIIIIBApgWY2pdpUa6HAAIIIIAAAggggAACoRcgkAp9F9NABBBAAAEEEEAAAQQQyLQAgVSmRbkeAggggAACCCCAAAIIhF6AQCr0XUwDEUAAAQQQQAABBBBAINMCBFKZFuV6CCCAAAIIIIAAAgggEHoBAqnQdzENRAABBBBAAAEEEEAAgUwLEEhlWpTrIYAAAggggAACCCCAQOgFCKRC38U0EAEEEEAAAQQQQAABBDItQCCVaVGuhwACCCCAAAIIIIAAAqEXIJAKfRfTQAQQQAABBBBAAAEEEMi0AIFUpkW5HgIIIIAAAggggAACCIRegEAq9F1MAxFAAAEEEEAAAQQQQCDTAgRSmRbleggggAACCCCAAAIIIBB6AQKp0HcxDUQAAQSiLbBmzRo799xzbdasWdGGoPUIIIAAAhkVIJDKKCcXQwABBBDwm8DGjRvtzTfftG+//dZvVaM+CCCAAAIBFiCQCnDnUXUEEEAAgdQEypfnn7vUpDgLAQQQQCBVAf5lSVWK8xBAAAEEAiuwdevWwNadiiOAAAII+FOAQMqf/UKtEEAAAQQyKMCIVAYxuRQCCCCAgBMgkOKDgAACCCAQegFGpELfxTQQAQQQyLkAgVTOybkhAggggECuBRiRyrU490MAAQTCL0AgFf4+poUIIIBA5AUYkYr8RwAABBBAIOMCBFIZJ+WCCCCAAAJ+E2BEym89Qn0QQACB4AsQSAW/D2kBAggggEAJAoxIlQDEywgggAACpRYgkCo1GW9AAAEEEAiaACNSQesx6osAAgj4X4BAyv99RA0RQAABBNIUYEQqTUDejgACCCCQIEAglUDCAQQQQACBsAkwIhW2HqU9CCCAQP4FCKTy3wfUAAEEEEAgywKMSGUZmMsjgAACERQgkIpgp9NkBBBAIGoCjEhFrcdpLwIIIJB9AQKp7BtzBwQQQACBPArUqFHDhgwZYk2bNs1jLbg1AggggEDYBCqGrUG0BwEEEEAAgViBypUr20UXXRR7iMcIIIAAAgikLcCIVNqEXAABBBBAAAEEEEAAAQSiJkAgFbUep70IIIAAAggggAACCCCQtgCBVNqEXAABBBBAAAEEEEAAAQSiJkAgFbUep70IIIAAAggggAACCCCQtgCBVNqEXAABBBBAAAEEEEAAAQSiJkAgFbUep70IIIAAAggggAACCCCQtgCBVNqEXAABBBBAAAEEEEAAAQSiJkAgFbUep70IIIAAAggggAACCCCQtgCBVNqEXAABBBBAAAEEEEAAAQSiJkAgFbUep70IIIAAAggggAACCCCQtgCBVNqEXAABBBBAAAEEEEAAAQSiJkAgFbUep70IIIAAAggggAACCCCQtgCBVNqEXAABBBBAAAEEEEAAAQSiJkAgFbUep70IIIBAxATWrFljPXr0sNmzZ0es5TQXAQQQQCCbAgRS2dTl2ggggAACeRfYuHGjTZ482ZYuXZr3ulABBBBAAIHwCBBIhacvaQkCCCCAQBECW7duLeIVDiOAAAIIIFA2AQKpsrnxLgQQQACBAAmUL88/dwHqLqqKAAIIBEKAf1kC0U1UEgEEEEAgHQFGpNLR470IIIAAAskECKSSqXAMAQQQQCBUAoxIhao7aQwCCCDgCwECKV90A5VAAAEEEMimACNS2dTl2ggggEA0BQikotnvtBoBBBCIlAAjUpHqbhqLAAII5ESAQConzNwEAQQQQCCfAoxI5VOfeyOAAALhFCCQCme/0ioEEEAAgRgBRqRiMHiIAAIIIJARAQKpjDByEQQQQAABPwswIuXn3qFuCCCAQDAFCKSC2W/UGgEEEECgFAKMSJUCi1MRQAABBFISIJBKiYmTEEAAAQSCLMCIVJB7j7ojgAAC/hQgkPJnv1ArBBBAAIEMCmhE6rfffsvgFbkUAggggEDUBQikov4JoP0IIIBAyAUqVapkNWvWtFdffdW2bNkS8tbSPAQQQACBXAlUzNWNuA8CCCCAAAL5EKhVq5aNHTvWKleubBUqVMhHFbgnAggggEAIBQikQtipNAkBBBBAoLBA06ZNCx/gGQIIIIAAAmkKMLUvTUDejgACCCCAAAIIIIAAAtETIJCKXp/TYgQQQAABBBBAAAEEEEhTgEAqTUDejgACCCCAAAIIIIAAAtETIJCKXp/TYgQQQAABBBBAAAEEEEhTgEAqTUDejgACCCCAAAIIIIAAAtETIJCKXp/TYgQQQAABBBBAAAEEEEhTgEAqTUDejgACCCCAAAIIIIAAAtETIJCKXp/TYgQQQAABBBBAAAEEEEhTgEAqTUDejgACCCCAAAIIIIAAAtETIJCKXp/TYgQQQAABBBBAAAEEEEhTgEAqTUDejgACCCCAAAIIIIAAAtETIJCKXp/TYgQQQAABBBBAAAEEEEhTgEAqTUDejgACCCDgf4HvvvvO1qxZ4/+KUkMEEEAAgcAIEEgFpquoKAIIIIBAWQQ2bNhg3bp1s+uvv962bNlSlkvwHgQQQAABBBIECKQSSDiAAAIIIBAmgfXr19tHH31khx12mFWoUCFMTaMtCCCAAAJ5FCCQyiM+t0YAAQQQyI3A1q1bbffdd8/NzbgLAggggEAkBAikItHNNBIBBBCItkD58vxzF+1PAK1HAAEEMi/AvyyZN+WKCCCAAAI+E9CIFAUBBBBAAIFMChBIZVKTayGAAAII+FKAESlfdguVQgABBAItQCAV6O6j8ggggAACqQgwIpWKEucggAACCJRGgECqNFqciwACCCAQSAFGpALZbVQaAQQQ8LUAgZSvu4fKIYAAAghkQoARqUwocg0EEEAAgVgBAqlYDR4jgAACCIRSgBGpUHYrjUIAAQTyKkAglVd+bo4AAgggkAsBRqRyocw9EEAAgWgJEEhFq79pLQIIIBBJAUakItntNBoBBBDIqgCBVFZ5uTgCCCCAgB8EGJHyQy9QBwQQQCBcAgRS4epPWoMAAgggkERAI1JbtmxJ8gqHEEAAAQQQKJsAgVTZ3HgXAggggEBABCpVqmTVqlWzyZMnE0wFpM+oJgIIIBAEgYpBqCR1RAABBBBAoKwCtWrVsoceesh23nlnq1ChQlkvw/sQQAABBBAoJEAgVYiDJwgggAACYRRo0aJFGJtFmxBAAAEE8ijA1L484nNrBBBAAAEEEEAAAQQQCKYAgVQw+41aI4AAAggggAACCCCAQB4FCKTyiM+tEUAAAQQQQAABBBBAIJgCrJEKZr9RawQQQAABBBBAAAEEfC+wcOFC6927t23atMk2b95sbdu2tYEDB9o333xjyqpat25d37ehqAoSSBUlw3EEEEAAAQQQQAABBBBIS2DdunU2c+ZM+/nnn9115s2bZ/Pnz7c5c+ZYlSpVrHv37talS5eCe1SuXNl22mmngud+fkAg5efeoW4IIIAAAggggAACCIRI4JdffrGnnnqqoEXXXXed3Xnnne75tm3b7IILLrCbb745ENtVEEgVdCMPEEAAAQQQQAABBBBAIJcCGqnyRqt035EjR9obb7xhO+64o5sK2LJlS/vTn/5kBxxwgJseqBGuhg0b5rKKRd6LQKpIGl5AAAEEEEAAAQQQQACBXAooqNJUQK+8//77LrjSfoAKopYvX25jxoyxo446yrZs2eJGrqpWrZqXESwCKa+X+IkAAggggAACCCCAAAK+ElCSCv2ZMmVKQb06d+5s1apVc4FU9erVbfjw4damTZuC13P1gEAqV9LcBwEEEEAAAQQQQAABBNIWWLVqlemPytKlS+3CCy+0gw46yLZu3eqmA2q06u677876KBWBVNpdyQUQQAABBBBAAAEEEEAgXwLLli0z/fHK4sWLvYdu1KpGjRrWr18/q1WrVsHxTDwgkMqEItdAAAEEEEAAAQQQQAABXwhoHdWoUaMK6lK+fHn7+OOP7ayzzipYV9WuXTurXbt2wTlleUAgVRY13oMAAgggECgBTQHZYYcdbJdddglUvaksAggggED6Apry98ILL7g/3tVOP/10u+mmm1xgpWPau6pBgwbu3wrvnJJ+li/phHy9PnnyZJeZI1/3574IIIAAAuEQ0J4lvXv3dul0w9EiWoEAAgggkK7AK6+8Yn/84x+tdevW1qpVK/dn7NixNnfuXLvxxhvdVEFlBSyu+HZESvMclaFDQ3EUBBBAAAEEyirw448/2ltvvWWHHHKInXHGGWW9DO9DAAEEEAiRwG+//Wb64xWlXe/fv79VqVLFVq5caY899ph169bN6tWr587bfffdrW3btoUSWJT7fQfhbd4F/PRT0zCOPPJIU174c845x+bPn28//PCDn6pIXRBAAAEEfCxQoUIFO+GEE2zq1Kk2a9Ys94/flVdeaZ9//rmtWbPGxzWnaggggEDwBTSdTr/AWr9+vU2YMMFl1Atyq5SwolGjRnb00UfbLbfcYpUrVzbfBlK//vqrS2U4ceJEq1Spkpu/uHnzZkaogvwJpO4IIIBAjgX074dmNyioUqlYsaL7zSL/nuS4I7gdAghETkCjPQcccIBpzGbRokWhaL8GeDp16mSDBg2y/fbbz7+BlLQ1KvXll1+GAp5GIIAAAggggAACCCAQJYHddtvNZcvr0qWLab1q0IoSFGlUTUuNNMKmjYD79Omz/Zdzfm6Qcr1nOt+7n9tL3RBAAAEEEEAAAQQQCJOA1qmWK1fO901SZlcFfprBoKCpcePGLlFR+/btCwKn+Eb4NtlEfEV5jgACCCCAAAIIIIAAAghkQkCjTEp5rqLph8red//997u1TzqmqeHVqlXTwyILgVSRNLyAAAIIIIAAAggggAACYRQ45ZRT7IYbbnBNU5rz+vXrl3qDXgKpMH4yaBMCCCCAAAIIIIAAAgg4gerVq1uLFi3stNNOc9P2NBqlx7Vr105LiEAqLT7ejAACCCCAAAIIIIAAAvkU0PomBUfK0qoU5c2bNy9It671TmeddZa1bNmyYNpepupKIJUpSa6DAAIIIIAAAggggAACORXYf//9XTY9bZz77LPP2rBhw1wwlYtKEEjlQpl7IIAAAggggAACCCCAQNoCRx11lHXv3t1dR6NN2ni9YcOG7nmPHj3Svn5pLkAgVRotzkUAAQQQQAABBBBAAIGsCShbngIkbei76667mpJC7Ljjju5+2lRd+zhp+p4fCoGUH3qBOiCAAAIIIIAAAgggEHEBJYUYPHiwLV++3BYvXmxXX321289Ja6D8WAik/Ngr1AkBBBBAAAEEEEAAgZAL1KhRwy6//HLba6+9bPPmzbbffvtZx44dXauVklyb4/q5EEj5uXeoGwIIIIAAAggggAACIRFQ5rwDDzzQTd3z1jedd955SQMmvwdR6hICqZB8MGkGAggggAACCCCAAAJ+E6hatao1bdrUNm7caAMGDLCTTz7Zb1Usc33Kbfu9lPndvBEBBBBAAAEEEEAAAQQQKEZA0/RUgjDKVEwzEl4ikEog4QACCCCAQNAF9I+2Nmb0irJAJfsHXFmh9EdFmznutNNO3lv4iQACCCCAQLEC5Yt9lRcRQAABBBAIoMDq1avd3iKHH364/fGPf7RvvvkmaSuefvpp0zlKpXvllVcmPYeDCCCAAAIIJBNgRCqZCscQQAABBAIrMG/ePLvxxhutWbNmVqVKFdPo1EcffWTaf+S2226z2rVr2/Tp0+3222+33XbbzZo0aeLO+eyzz1ybhwwZYnvuuWdg20/FEUAAAQRyI0Cyidw4cxcEEEAAgSwLrFmzxv7xj3/Y999/71LpXnrppS5o0m2feeYZt4njypUr7cEHH7Trr7/edP6pp57qUu/+8MMPdvzxx9uiRYtcEKVgioIAAggggEBxAoxIFafDawgggAACgRG46qqr7NFHH7W2bdvauHHjCq130qjUMcccY3PmzLH999/fGjRoYKNHj7Z69erZunXrrFevXi7Y0nqp4447zl588UWrVatWYNpORRFAAAEEci/AGqncm3NHBBBAAIEMCygA0kjUnXfeaU8++WShICr+Vl9//bV1797dBVF6bcGCBfbWW2+56X1KOHHKKacQRMWj8RwBBBBAIEGAqX0JJBxAAAEEEAiawKBBg2z58uV22mmnJa26Nn7UH5V99tnH6tevX3Ce1ki98cYbNnLkSNt5552td+/eBa/xAAEEEEAAgaIECKSKkuE4AggggEAgBDRt75NPPnF13WGHHZLWWdn5NPKkcvrpp1vjxo0LztN7FFhpqh8FAQQQQACBVAVYI5WqFOchgAACCPhWYOnSpaaEEU2bNk2oo9ZAdezY0WbMmGHVq1e3mTNnWsOGDRPO4wACCCCAAAKlEWCNVGm0OBcBBBBAwJcCdevWTRpEqbI//fSTLVy40NX7P//5j1sP5ctGUCkEEEAAgUAJEEgFqruoLAIIIIBAWQS2bdvm3qb9oQ466KCyXIL3IIAAAgggUEiAQKoQB08QQAABBMIm8OOPP7qMfGpX586drVWrVmFrIu1BAAEEEMiDAIFUHtC5JQIIIIBA7gSURGLVqlXuhkpvXlxRGnUKAggggAACqQgU/y9KKlfgHAQQQAABBHwsoDVSqZQlS5ZY//79bcOGDamczjkIIIAAAhEXIJCK+AeA5iOAAAJhEVizZo3FjygpNXqqgdS4ceNs2rRpVqFChbCQ0A4EEEAAgSwKEEhlEZdLI4AAAghkX0DBkoKgs88+28aOHVvohkp5rs12SyoTJkywyZMn2/Dhw61y5colnc7rCCCAAAIIGBvy8iFAAAEEEAi0gKbkDR482BYtWmSHHXZYQVu0t9SgQYNs/fr1BceSPXjiiSdsxIgRduutt1qbNm2SncIxBBBAAAEEEgQIpBJIOIAAAgggECSBqVOnmoKmXXbZxW28q8BKm/D26tXLPv74Y2vfvr37uWzZMlMGP52rKYCawqcRq1GjRtntt99OEBWkTqeuCCCAgA8Eyv2+t8Z/N9fwQWWoAgIIIIAAAqUVUHKIK664wp588kmrVq2alStXznbccUdr0qSJ9evXz44//nibMmWK9ezZ0zZt2mQ777yzbd261d2mVq1apqx+jESVVp3zEUAAAQQIpPgMIIAAAggEXkCJJv79738XBEiVKlWyY489ttB6p9mzZ9vq1asL2qpgqk6dOta4ceOCYzxAAAEEEEAgVQECqVSlOA8BBBBAAAEEEEAAAQQQ+J8AWfv4KCCAAAIIIIAAAggggAACpRQgkColGKcjgAACCCCAAAIIIIAAAgRSfAYQQAABBBBAAAEEEEAAgVIK/D/lPQtfiFaxSQAAAABJRU5ErkJggg==;rounded=1;" vertex="1" parent="1">
          <mxGeometry x="400" y="230" width="850" height="647" as="geometry" />
        </mxCell>
        <mxCell id="-kdrLQUQp2IR4uxi2dbM-2" value="" style="endArrow=none;html=1;rounded=0;exitX=0.459;exitY=0.912;exitDx=0;exitDy=0;exitPerimeter=0;" edge="1" parent="1">
          <mxGeometry width="50" height="50" relative="1" as="geometry">
            <mxPoint x="792.1499999999999" y="822.0640000000001" as="sourcePoint" />
            <mxPoint x="962" y="652" as="targetPoint" />
          </mxGeometry>
        </mxCell>
        <mxCell id="-kdrLQUQp2IR4uxi2dbM-3" value="" style="endArrow=none;html=1;rounded=0;exitX=0.459;exitY=0.912;exitDx=0;exitDy=0;exitPerimeter=0;" edge="1" parent="1">
          <mxGeometry width="50" height="50" relative="1" as="geometry">
            <mxPoint x="570" y="573" as="sourcePoint" />
            <mxPoint x="740" y="403" as="targetPoint" />
          </mxGeometry>
        </mxCell>
        <mxCell id="-kdrLQUQp2IR4uxi2dbM-4" value="" style="endArrow=block;startArrow=block;html=1;rounded=0;endFill=1;startFill=1;strokeWidth=3;" edge="1" parent="1">
          <mxGeometry width="50" height="50" relative="1" as="geometry">
            <mxPoint x="797" y="814" as="sourcePoint" />
            <mxPoint x="573" y="574" as="targetPoint" />
          </mxGeometry>
        </mxCell>
        <mxCell id="-kdrLQUQp2IR4uxi2dbM-6" value="" style="endArrow=none;html=1;rounded=0;strokeColor=default;" edge="1" parent="1">
          <mxGeometry width="50" height="50" relative="1" as="geometry">
            <mxPoint x="910" y="670" as="sourcePoint" />
            <mxPoint x="992" y="760" as="targetPoint" />
          </mxGeometry>
        </mxCell>
        <mxCell id="-kdrLQUQp2IR4uxi2dbM-8" value="" style="endArrow=none;html=1;rounded=0;strokeColor=default;" edge="1" parent="1">
          <mxGeometry width="50" height="50" relative="1" as="geometry">
            <mxPoint x="980" y="600" as="sourcePoint" />
            <mxPoint x="1064" y="695" as="targetPoint" />
          </mxGeometry>
        </mxCell>
        <mxCell id="-kdrLQUQp2IR4uxi2dbM-10" value="" style="endArrow=block;startArrow=block;html=1;rounded=0;endFill=1;startFill=1;strokeWidth=3;" edge="1" parent="1">
          <mxGeometry width="50" height="50" relative="1" as="geometry">
            <mxPoint x="989" y="755" as="sourcePoint" />
            <mxPoint x="1057" y="688" as="targetPoint" />
          </mxGeometry>
        </mxCell>
        <mxCell id="-kdrLQUQp2IR4uxi2dbM-12" value="&lt;b&gt;&lt;font style=&quot;font-size: 27px;&quot;&gt;2L&lt;/font&gt;&lt;/b&gt;" style="text;html=1;strokeColor=none;fillColor=none;align=center;verticalAlign=middle;whiteSpace=wrap;rounded=0;fontColor=#0066CC;rotation=45;" vertex="1" parent="1">
          <mxGeometry x="670" y="672" width="60" height="30" as="geometry" />
        </mxCell>
        <mxCell id="-kdrLQUQp2IR4uxi2dbM-14" value="&lt;b&gt;&lt;font style=&quot;font-size: 27px;&quot;&gt;2R&lt;/font&gt;&lt;/b&gt;" style="text;html=1;strokeColor=none;fillColor=none;align=center;verticalAlign=middle;whiteSpace=wrap;rounded=0;fontColor=#0066CC;rotation=-45;" vertex="1" parent="1">
          <mxGeometry x="981" y="697" width="60" height="30" as="geometry" />
        </mxCell>
      </root>
    </mxGraphModel>
  </diagram>
</mxfile>
